<svg width="280" height="15" viewBox="0 0 280 15" fill="none" xmlns="http://www.w3.org/2000/svg">
<path d="M1.17383 14.5562L5.35115 0.556152M274.651 14.5561L278.828 0.556114L274.651 14.5561ZM253.615 14.5561L257.792 0.556117L253.615 14.5561ZM232.579 14.5561L236.757 0.55612L232.579 14.5561ZM211.544 14.5561L215.721 0.556123L211.544 14.5561ZM190.508 14.5561L194.685 0.556125L190.508 14.5561ZM169.472 14.5561L173.649 0.556128L169.472 14.5561ZM148.436 14.5561L152.614 0.556131L148.436 14.5561ZM127.395 14.5561L131.572 0.556134L127.395 14.5561ZM106.359 14.5561L110.536 0.556137L106.359 14.5561ZM85.3229 14.5561L89.5003 0.55614L85.3229 14.5561ZM64.2812 14.5561L68.4585 0.556143L64.2812 14.5561ZM43.2454 14.5561L47.4227 0.556146L43.2454 14.5561ZM22.2096 14.5561L26.3869 0.556149L22.2096 14.5561Z" stroke="white" stroke-opacity="0.5" stroke-miterlimit="10"/>
</svg>
