<svg width="140" height="24" viewBox="0 0 140 24" fill="none" xmlns="http://www.w3.org/2000/svg">
<path fill-rule="evenodd" clip-rule="evenodd" d="M79.1436 16.8001L74.1969 3.9317H70.8384C70.8253 3.94918 70.8207 3.95542 70.8076 3.97277L77.3791 20.3583H80.9917L87.4482 3.97264C87.4351 3.95529 87.4304 3.94905 87.4174 3.9317L84.1522 3.93183L79.2053 16.8001H79.1436Z" fill="white"/>
<path fill-rule="evenodd" clip-rule="evenodd" d="M137.838 12.523L132.429 9.42177C131.95 9.14665 131.615 8.66907 131.622 8.14493C131.634 7.36901 132.315 6.74077 133.153 6.74077H138.855V3.9317H133.289C130.736 3.9317 128.553 5.87511 128.603 8.24953C128.634 9.69576 129.437 11.0057 130.765 11.767L136.253 14.914C136.7 15.1707 136.971 15.6131 136.98 16.1008C136.994 16.8975 136.234 17.5493 135.377 17.5493H130.071L128.271 20.312C128.284 20.3327 128.287 20.3376 128.3 20.3583H135.313C137.866 20.3583 140.048 18.4154 139.999 16.0416C139.969 14.5949 139.166 13.2842 137.838 12.523Z" fill="white"/>
<path fill-rule="evenodd" clip-rule="evenodd" d="M116.496 17.5491V3.9317H113.477V20.3585H122.502L124.302 17.5954C124.29 17.5747 124.287 17.5699 124.274 17.5491H116.496Z" fill="white"/>
<path fill-rule="evenodd" clip-rule="evenodd" d="M39.3411 17.5496V3.93213H36.3213V20.3589H45.3469L47.147 17.5959C47.1345 17.5752 47.1316 17.5703 47.119 17.5496H39.3411Z" fill="white"/>
<path fill-rule="evenodd" clip-rule="evenodd" d="M54.2495 3.85651V20.4581V20.4583H64.4975V20.4581V17.619H57.0082V13.5769H63.4753V10.7377H57.0082V6.69573H64.4975V3.85651H54.2495Z" fill="white"/>
<path fill-rule="evenodd" clip-rule="evenodd" d="M93.9604 3.85651V20.4581V20.4583H104.208V20.4581V17.6191H96.7191V13.5769H103.186V10.7378H96.7191V6.69563H104.208V3.85651H93.9604Z" fill="white"/>
<path fill-rule="evenodd" clip-rule="evenodd" d="M7.57122 0.850159L0 3.20557V23.0436C0.0166242 23.0566 0.02335 23.0617 0.0399741 23.0747L7.6112 20.719V0.881263C7.59445 0.868236 7.58785 0.863185 7.57122 0.850159Z" fill="white"/>
<path fill-rule="evenodd" clip-rule="evenodd" d="M9.90381 13.8733V23.0436C9.92043 23.0565 9.92703 23.0617 9.94378 23.0747L17.5149 20.7193V11.5487C17.4983 11.5357 17.4917 11.5305 17.475 11.5176L9.90381 13.8733Z" fill="white"/>
</svg>
