<svg width="778" height="202" viewBox="0 0 778 202" fill="none" xmlns="http://www.w3.org/2000/svg">
<path d="M1.5 130.055C19 125.98 71.5 156.137 85.5 151.246C103 145.133 92.5 136.983 81.5 136.983C70.5 136.983 91.5 178.551 105 165.102C118.5 151.654 65.5 38.3612 89 7.38906C96.7346 -2.80487 116.899 -0.42908 123 11.8719C132.5 31.0257 118.263 116.67 68 85.6343C35 65.2579 71.7368 43.2515 81.5 43.2515C98.5 38.7687 140 63.6278 114 102.75C81.5 151.654 68 132.907 68 119.867C68 94.5999 164 102.75 195 102.75C226 102.75 276.1 75.6906 304.5 78.2988" stroke="white" stroke-opacity="0.3"/>
<path d="M2.5 143.911C24.5 132.5 91.469 160.619 95 136.983C96.4365 127.367 74.0323 117.678 63.5 123.942C50.0245 131.957 51.3334 179.18 69.5 184.664C83 188.739 126.5 165.102 133.5 136.983C138.641 116.33 104.403 107.768 81.5 105.324M440 104.788C408.5 108.864 321.5 58.8389 260 71.371C224 76.2613 220.5 112.818 196 108.864C145.5 100.713 121.167 124.078 118.5 129.647C98.091 154.776 36.5 200.035 36.5 136.983C36.5 126.387 52.5 106.418 63.5 104.788C66.4209 104.355 73.2197 104.44 81.5 105.324M305.5 62.8128C257.309 48.5913 235.5 77.4838 175 82.7817C156.28 84.421 152.5 101.936 143 108.864C133.5 115.791 94 123.942 74.5 123.942C55 123.942 37.88 171.215 61.69 191.184C85.5 211.153 116.5 197.704 127.5 184.664C138.5 171.623 164.5 122.312 133.5 92.5624C102.5 62.8128 82.5 90.7805 81.5 105.324M81.5 105.324C80.8333 112.752 83.9 128.017 101.5 129.647C123.5 131.685 159 106.418 151 88.8946C143 71.371 101.31 66.0729 81.5 77.4838C61.69 88.8946 55 111.079 36.5 115.791C18 120.503 2.5 117.422 0.5 117.422" stroke="white" stroke-opacity="0.3"/>
<path d="M521 105L624 105" stroke="white" stroke-opacity="0.3"/>
<path d="M692.5 104.788L773.5 44.8816" stroke="white" stroke-opacity="0.3"/>
<path d="M693 104.788L774 65.6655" stroke="white" stroke-opacity="0.3"/>
<path d="M693 104.788L777 89.3021" stroke="white" stroke-opacity="0.3"/>
<path d="M693 104.788L774 125.165" stroke="white" stroke-opacity="0.3"/>
<path d="M693 104.788L773 144.726" stroke="white" stroke-opacity="0.3"/>
<path d="M693 104.788L771 169.177" stroke="white" stroke-opacity="0.3"/>
<path d="M460.431 105.654L462.393 106.276C462.092 107.37 461.59 108.184 460.889 108.717C460.191 109.245 459.305 109.51 458.229 109.51C456.899 109.51 455.805 109.056 454.948 108.149C454.091 107.238 453.663 105.994 453.663 104.417C453.663 102.749 454.094 101.455 454.955 100.534C455.816 99.609 456.949 99.1465 458.353 99.1465C459.578 99.1465 460.574 99.5088 461.34 100.233C461.796 100.662 462.137 101.277 462.365 102.079L460.362 102.558C460.244 102.038 459.995 101.628 459.617 101.327C459.243 101.026 458.788 100.876 458.25 100.876C457.507 100.876 456.903 101.143 456.438 101.676C455.978 102.209 455.748 103.073 455.748 104.267C455.748 105.534 455.976 106.436 456.432 106.974C456.887 107.511 457.48 107.78 458.209 107.78C458.747 107.78 459.209 107.609 459.597 107.268C459.984 106.926 460.262 106.388 460.431 105.654ZM463.726 104.39C463.726 103.369 463.878 102.512 464.184 101.819C464.411 101.309 464.721 100.851 465.113 100.445C465.51 100.04 465.943 99.7389 466.412 99.543C467.036 99.2786 467.757 99.1465 468.572 99.1465C470.049 99.1465 471.229 99.6045 472.113 100.521C473.002 101.437 473.446 102.71 473.446 104.342C473.446 105.96 473.007 107.227 472.127 108.143C471.247 109.054 470.072 109.51 468.6 109.51C467.109 109.51 465.924 109.056 465.045 108.149C464.165 107.238 463.726 105.985 463.726 104.39ZM465.811 104.321C465.811 105.456 466.073 106.317 466.597 106.905C467.121 107.489 467.786 107.78 468.593 107.78C469.399 107.78 470.06 107.491 470.575 106.912C471.095 106.329 471.354 105.456 471.354 104.294C471.354 103.146 471.102 102.289 470.596 101.724C470.094 101.159 469.427 100.876 468.593 100.876C467.759 100.876 467.087 101.163 466.576 101.737C466.066 102.307 465.811 103.168 465.811 104.321ZM475.025 99.3174H478.724C479.558 99.3174 480.193 99.3812 480.631 99.5088C481.219 99.682 481.722 99.9896 482.142 100.432C482.561 100.874 482.88 101.416 483.099 102.059C483.317 102.697 483.427 103.485 483.427 104.424C483.427 105.249 483.324 105.96 483.119 106.557C482.868 107.286 482.511 107.876 482.046 108.327C481.695 108.669 481.221 108.936 480.624 109.127C480.177 109.268 479.58 109.339 478.833 109.339H475.025V99.3174ZM477.049 101.013V107.65H478.56C479.125 107.65 479.533 107.618 479.783 107.555C480.111 107.473 480.382 107.334 480.597 107.138C480.815 106.942 480.993 106.62 481.13 106.174C481.267 105.723 481.335 105.11 481.335 104.335C481.335 103.56 481.267 102.965 481.13 102.551C480.993 102.136 480.802 101.812 480.556 101.58C480.31 101.348 479.997 101.19 479.619 101.108C479.337 101.045 478.783 101.013 477.958 101.013H477.049ZM485.088 109.339V99.3174H487.111V109.339H485.088ZM489.06 109.339V99.3174H495.93V101.013H491.083V103.385H495.267V105.08H491.083V109.339H489.06ZM500.236 109.339V105.121L496.565 99.3174H498.938L501.296 103.282L503.606 99.3174H505.938L502.253 105.135V109.339H500.236Z" fill="white"/>
<path d="M279.675 131.266C280.29 131.689 280.857 131.999 281.377 132.195L280.987 133.118C280.267 132.858 279.549 132.448 278.834 131.888C278.091 132.302 277.271 132.51 276.373 132.51C275.466 132.51 274.644 132.291 273.905 131.854C273.167 131.416 272.597 130.801 272.196 130.008C271.8 129.215 271.602 128.322 271.602 127.328C271.602 126.339 271.802 125.439 272.203 124.628C272.604 123.817 273.174 123.199 273.912 122.775C274.655 122.352 275.484 122.14 276.4 122.14C277.326 122.14 278.16 122.361 278.902 122.803C279.645 123.24 280.21 123.855 280.598 124.648C280.99 125.437 281.186 126.328 281.186 127.321C281.186 128.146 281.06 128.889 280.81 129.55C280.559 130.206 280.181 130.778 279.675 131.266ZM276.756 129.57C277.521 129.785 278.153 130.104 278.649 130.527C279.429 129.816 279.818 128.748 279.818 127.321C279.818 126.51 279.679 125.801 279.401 125.195C279.128 124.589 278.725 124.12 278.191 123.787C277.663 123.45 277.068 123.281 276.407 123.281C275.418 123.281 274.598 123.621 273.946 124.3C273.295 124.974 272.969 125.984 272.969 127.328C272.969 128.632 273.29 129.632 273.933 130.329C274.58 131.026 275.405 131.375 276.407 131.375C276.881 131.375 277.328 131.286 277.747 131.108C277.332 130.84 276.895 130.648 276.435 130.534L276.756 129.57ZM287.112 132.339H285.882V124.498C285.586 124.781 285.196 125.063 284.713 125.346C284.234 125.628 283.804 125.84 283.421 125.981V124.792C284.109 124.468 284.711 124.076 285.226 123.616C285.741 123.156 286.105 122.709 286.319 122.276H287.112V132.339ZM300.634 131.156V132.339H294.01C294.001 132.043 294.049 131.758 294.153 131.484C294.322 131.033 294.591 130.589 294.96 130.151C295.334 129.714 295.871 129.208 296.573 128.634C297.662 127.741 298.398 127.034 298.781 126.515C299.164 125.991 299.355 125.496 299.355 125.031C299.355 124.544 299.18 124.133 298.829 123.801C298.483 123.464 298.029 123.295 297.469 123.295C296.876 123.295 296.402 123.473 296.047 123.828C295.691 124.184 295.511 124.676 295.507 125.305L294.242 125.175C294.329 124.231 294.655 123.514 295.22 123.021C295.785 122.525 296.544 122.276 297.496 122.276C298.458 122.276 299.219 122.543 299.779 123.076C300.34 123.609 300.62 124.27 300.62 125.059C300.62 125.46 300.538 125.854 300.374 126.241C300.21 126.629 299.937 127.036 299.554 127.465C299.175 127.893 298.544 128.481 297.66 129.229C296.922 129.848 296.448 130.27 296.238 130.493C296.029 130.712 295.855 130.933 295.719 131.156H300.634ZM301.96 127.396C301.96 126.212 302.081 125.259 302.322 124.539C302.568 123.814 302.931 123.256 303.409 122.864C303.892 122.472 304.498 122.276 305.228 122.276C305.765 122.276 306.237 122.386 306.643 122.604C307.048 122.819 307.383 123.131 307.647 123.541C307.912 123.947 308.119 124.443 308.27 125.031C308.42 125.615 308.495 126.403 308.495 127.396C308.495 128.572 308.374 129.522 308.133 130.247C307.891 130.967 307.529 131.525 307.046 131.922C306.567 132.314 305.961 132.51 305.228 132.51C304.261 132.51 303.503 132.163 302.951 131.471C302.29 130.637 301.96 129.279 301.96 127.396ZM303.225 127.396C303.225 129.042 303.416 130.138 303.799 130.685C304.186 131.227 304.662 131.498 305.228 131.498C305.793 131.498 306.267 131.225 306.649 130.678C307.037 130.131 307.23 129.037 307.23 127.396C307.23 125.747 307.037 124.651 306.649 124.108C306.267 123.566 305.788 123.295 305.214 123.295C304.649 123.295 304.198 123.534 303.86 124.013C303.437 124.623 303.225 125.751 303.225 127.396ZM316.22 131.156V132.339H309.596C309.587 132.043 309.634 131.758 309.739 131.484C309.908 131.033 310.177 130.589 310.546 130.151C310.92 129.714 311.457 129.208 312.159 128.634C313.248 127.741 313.984 127.034 314.367 126.515C314.75 125.991 314.941 125.496 314.941 125.031C314.941 124.544 314.766 124.133 314.415 123.801C314.069 123.464 313.615 123.295 313.055 123.295C312.462 123.295 311.988 123.473 311.633 123.828C311.277 124.184 311.097 124.676 311.093 125.305L309.828 125.175C309.915 124.231 310.241 123.514 310.806 123.021C311.371 122.525 312.13 122.276 313.082 122.276C314.044 122.276 314.805 122.543 315.365 123.076C315.926 123.609 316.206 124.27 316.206 125.059C316.206 125.46 316.124 125.854 315.96 126.241C315.796 126.629 315.522 127.036 315.14 127.465C314.761 127.893 314.13 128.481 313.246 129.229C312.508 129.848 312.034 130.27 311.824 130.493C311.615 130.712 311.441 130.933 311.305 131.156H316.22ZM317.546 127.396C317.546 126.212 317.667 125.259 317.908 124.539C318.154 123.814 318.517 123.256 318.995 122.864C319.478 122.472 320.084 122.276 320.813 122.276C321.351 122.276 321.823 122.386 322.229 122.604C322.634 122.819 322.969 123.131 323.233 123.541C323.498 123.947 323.705 124.443 323.855 125.031C324.006 125.615 324.081 126.403 324.081 127.396C324.081 128.572 323.96 129.522 323.719 130.247C323.477 130.967 323.115 131.525 322.632 131.922C322.153 132.314 321.547 132.51 320.813 132.51C319.847 132.51 319.089 132.163 318.537 131.471C317.876 130.637 317.546 129.279 317.546 127.396ZM318.811 127.396C318.811 129.042 319.002 130.138 319.385 130.685C319.772 131.227 320.248 131.498 320.813 131.498C321.379 131.498 321.853 131.225 322.235 130.678C322.623 130.131 322.816 129.037 322.816 127.396C322.816 125.747 322.623 124.651 322.235 124.108C321.853 123.566 321.374 123.295 320.8 123.295C320.235 123.295 319.784 123.534 319.446 124.013C319.022 124.623 318.811 125.751 318.811 127.396Z" fill="#F2F2F2"/>
<path d="M461.675 131.266C462.29 131.689 462.857 131.999 463.377 132.195L462.987 133.118C462.267 132.858 461.549 132.448 460.834 131.888C460.091 132.302 459.271 132.51 458.373 132.51C457.466 132.51 456.644 132.291 455.905 131.854C455.167 131.416 454.597 130.801 454.196 130.008C453.8 129.215 453.602 128.322 453.602 127.328C453.602 126.339 453.802 125.439 454.203 124.628C454.604 123.817 455.174 123.199 455.912 122.775C456.655 122.352 457.484 122.14 458.4 122.14C459.326 122.14 460.16 122.361 460.902 122.803C461.645 123.24 462.21 123.855 462.598 124.648C462.99 125.437 463.186 126.328 463.186 127.321C463.186 128.146 463.06 128.889 462.81 129.55C462.559 130.206 462.181 130.778 461.675 131.266ZM458.756 129.57C459.521 129.785 460.153 130.104 460.649 130.527C461.429 129.816 461.818 128.748 461.818 127.321C461.818 126.51 461.679 125.801 461.401 125.195C461.128 124.589 460.725 124.12 460.191 123.787C459.663 123.45 459.068 123.281 458.407 123.281C457.418 123.281 456.598 123.621 455.946 124.3C455.295 124.974 454.969 125.984 454.969 127.328C454.969 128.632 455.29 129.632 455.933 130.329C456.58 131.026 457.405 131.375 458.407 131.375C458.881 131.375 459.328 131.286 459.747 131.108C459.332 130.84 458.895 130.648 458.435 130.534L458.756 129.57ZM470.944 131.156V132.339H464.32C464.311 132.043 464.359 131.758 464.464 131.484C464.632 131.033 464.901 130.589 465.271 130.151C465.644 129.714 466.182 129.208 466.884 128.634C467.973 127.741 468.709 127.034 469.092 126.515C469.475 125.991 469.666 125.496 469.666 125.031C469.666 124.544 469.491 124.133 469.14 123.801C468.793 123.464 468.34 123.295 467.779 123.295C467.187 123.295 466.713 123.473 466.357 123.828C466.002 124.184 465.822 124.676 465.817 125.305L464.553 125.175C464.639 124.231 464.965 123.514 465.53 123.021C466.095 122.525 466.854 122.276 467.807 122.276C468.768 122.276 469.529 122.543 470.09 123.076C470.65 123.609 470.931 124.27 470.931 125.059C470.931 125.46 470.849 125.854 470.685 126.241C470.521 126.629 470.247 127.036 469.864 127.465C469.486 127.893 468.855 128.481 467.971 129.229C467.232 129.848 466.758 130.27 466.549 130.493C466.339 130.712 466.166 130.933 466.029 131.156H470.944ZM482.634 131.156V132.339H476.01C476.001 132.043 476.049 131.758 476.153 131.484C476.322 131.033 476.591 130.589 476.96 130.151C477.334 129.714 477.871 129.208 478.573 128.634C479.662 127.741 480.398 127.034 480.781 126.515C481.164 125.991 481.355 125.496 481.355 125.031C481.355 124.544 481.18 124.133 480.829 123.801C480.483 123.464 480.029 123.295 479.469 123.295C478.876 123.295 478.402 123.473 478.047 123.828C477.691 124.184 477.511 124.676 477.507 125.305L476.242 125.175C476.329 124.231 476.655 123.514 477.22 123.021C477.785 122.525 478.544 122.276 479.496 122.276C480.458 122.276 481.219 122.543 481.779 123.076C482.34 123.609 482.62 124.27 482.62 125.059C482.62 125.46 482.538 125.854 482.374 126.241C482.21 126.629 481.937 127.036 481.554 127.465C481.175 127.893 480.544 128.481 479.66 129.229C478.922 129.848 478.448 130.27 478.238 130.493C478.029 130.712 477.855 130.933 477.719 131.156H482.634ZM483.96 127.396C483.96 126.212 484.081 125.259 484.322 124.539C484.568 123.814 484.931 123.256 485.409 122.864C485.892 122.472 486.498 122.276 487.228 122.276C487.765 122.276 488.237 122.386 488.643 122.604C489.048 122.819 489.383 123.131 489.647 123.541C489.912 123.947 490.119 124.443 490.27 125.031C490.42 125.615 490.495 126.403 490.495 127.396C490.495 128.572 490.374 129.522 490.133 130.247C489.891 130.967 489.529 131.525 489.046 131.922C488.567 132.314 487.961 132.51 487.228 132.51C486.261 132.51 485.503 132.163 484.951 131.471C484.29 130.637 483.96 129.279 483.96 127.396ZM485.225 127.396C485.225 129.042 485.416 130.138 485.799 130.685C486.186 131.227 486.662 131.498 487.228 131.498C487.793 131.498 488.267 131.225 488.649 130.678C489.037 130.131 489.23 129.037 489.23 127.396C489.23 125.747 489.037 124.651 488.649 124.108C488.267 123.566 487.788 123.295 487.214 123.295C486.649 123.295 486.198 123.534 485.86 124.013C485.437 124.623 485.225 125.751 485.225 127.396ZM498.22 131.156V132.339H491.596C491.587 132.043 491.634 131.758 491.739 131.484C491.908 131.033 492.177 130.589 492.546 130.151C492.92 129.714 493.457 129.208 494.159 128.634C495.248 127.741 495.984 127.034 496.367 126.515C496.75 125.991 496.941 125.496 496.941 125.031C496.941 124.544 496.766 124.133 496.415 123.801C496.069 123.464 495.615 123.295 495.055 123.295C494.462 123.295 493.988 123.473 493.633 123.828C493.277 124.184 493.097 124.676 493.093 125.305L491.828 125.175C491.915 124.231 492.241 123.514 492.806 123.021C493.371 122.525 494.13 122.276 495.082 122.276C496.044 122.276 496.805 122.543 497.365 123.076C497.926 123.609 498.206 124.27 498.206 125.059C498.206 125.46 498.124 125.854 497.96 126.241C497.796 126.629 497.522 127.036 497.14 127.465C496.761 127.893 496.13 128.481 495.246 129.229C494.508 129.848 494.034 130.27 493.824 130.493C493.615 130.712 493.441 130.933 493.305 131.156H498.22ZM499.546 127.396C499.546 126.212 499.667 125.259 499.908 124.539C500.154 123.814 500.517 123.256 500.995 122.864C501.478 122.472 502.084 122.276 502.813 122.276C503.351 122.276 503.823 122.386 504.229 122.604C504.634 122.819 504.969 123.131 505.233 123.541C505.498 123.947 505.705 124.443 505.855 125.031C506.006 125.615 506.081 126.403 506.081 127.396C506.081 128.572 505.96 129.522 505.719 130.247C505.477 130.967 505.115 131.525 504.632 131.922C504.153 132.314 503.547 132.51 502.813 132.51C501.847 132.51 501.089 132.163 500.537 131.471C499.876 130.637 499.546 129.279 499.546 127.396ZM500.811 127.396C500.811 129.042 501.002 130.138 501.385 130.685C501.772 131.227 502.248 131.498 502.813 131.498C503.379 131.498 503.853 131.225 504.235 130.678C504.623 130.131 504.816 129.037 504.816 127.396C504.816 125.747 504.623 124.651 504.235 124.108C503.853 123.566 503.374 123.295 502.8 123.295C502.235 123.295 501.784 123.534 501.446 124.013C501.022 124.623 500.811 125.751 500.811 127.396Z" fill="#F2F2F2"/>
<path d="M97.6748 131.266C98.29 131.689 98.8574 131.999 99.377 132.195L98.9873 133.118C98.2673 132.858 97.5495 132.448 96.834 131.888C96.0911 132.302 95.2708 132.51 94.373 132.51C93.4661 132.51 92.6436 132.291 91.9053 131.854C91.167 131.416 90.5973 130.801 90.1963 130.008C89.7998 129.215 89.6016 128.322 89.6016 127.328C89.6016 126.339 89.8021 125.439 90.2031 124.628C90.6042 123.817 91.1738 123.199 91.9121 122.775C92.6549 122.352 93.4844 122.14 94.4004 122.14C95.3255 122.14 96.1595 122.361 96.9023 122.803C97.6452 123.24 98.2103 123.855 98.5977 124.648C98.9896 125.437 99.1855 126.328 99.1855 127.321C99.1855 128.146 99.0602 128.889 98.8096 129.55C98.5589 130.206 98.1807 130.778 97.6748 131.266ZM94.7559 129.57C95.5215 129.785 96.1527 130.104 96.6494 130.527C97.4287 129.816 97.8184 128.748 97.8184 127.321C97.8184 126.51 97.6794 125.801 97.4014 125.195C97.1279 124.589 96.7246 124.12 96.1914 123.787C95.6628 123.45 95.068 123.281 94.4072 123.281C93.4183 123.281 92.598 123.621 91.9463 124.3C91.2946 124.974 90.9688 125.984 90.9688 127.328C90.9688 128.632 91.29 129.632 91.9326 130.329C92.5798 131.026 93.4046 131.375 94.4072 131.375C94.8812 131.375 95.3278 131.286 95.7471 131.108C95.3324 130.84 94.8949 130.648 94.4346 130.534L94.7559 129.57ZM104.422 132.339V129.939H100.074V128.812L104.647 122.317H105.652V128.812H107.006V129.939H105.652V132.339H104.422ZM104.422 128.812V124.293L101.284 128.812H104.422ZM118.634 131.156V132.339H112.01C112.001 132.043 112.049 131.758 112.153 131.484C112.322 131.033 112.591 130.589 112.96 130.151C113.334 129.714 113.871 129.208 114.573 128.634C115.662 127.741 116.398 127.034 116.781 126.515C117.164 125.991 117.355 125.496 117.355 125.031C117.355 124.544 117.18 124.133 116.829 123.801C116.483 123.464 116.029 123.295 115.469 123.295C114.876 123.295 114.402 123.473 114.047 123.828C113.691 124.184 113.511 124.676 113.507 125.305L112.242 125.175C112.329 124.231 112.655 123.514 113.22 123.021C113.785 122.525 114.544 122.276 115.496 122.276C116.458 122.276 117.219 122.543 117.779 123.076C118.34 123.609 118.62 124.27 118.62 125.059C118.62 125.46 118.538 125.854 118.374 126.241C118.21 126.629 117.937 127.036 117.554 127.465C117.175 127.893 116.544 128.481 115.66 129.229C114.922 129.848 114.448 130.27 114.238 130.493C114.029 130.712 113.855 130.933 113.719 131.156H118.634ZM119.96 127.396C119.96 126.212 120.081 125.259 120.322 124.539C120.568 123.814 120.931 123.256 121.409 122.864C121.892 122.472 122.498 122.276 123.228 122.276C123.765 122.276 124.237 122.386 124.643 122.604C125.048 122.819 125.383 123.131 125.647 123.541C125.912 123.947 126.119 124.443 126.27 125.031C126.42 125.615 126.495 126.403 126.495 127.396C126.495 128.572 126.374 129.522 126.133 130.247C125.891 130.967 125.529 131.525 125.046 131.922C124.567 132.314 123.961 132.51 123.228 132.51C122.261 132.51 121.503 132.163 120.951 131.471C120.29 130.637 119.96 129.279 119.96 127.396ZM121.225 127.396C121.225 129.042 121.416 130.138 121.799 130.685C122.186 131.227 122.662 131.498 123.228 131.498C123.793 131.498 124.267 131.225 124.649 130.678C125.037 130.131 125.23 129.037 125.23 127.396C125.23 125.747 125.037 124.651 124.649 124.108C124.267 123.566 123.788 123.295 123.214 123.295C122.649 123.295 122.198 123.534 121.86 124.013C121.437 124.623 121.225 125.751 121.225 127.396ZM132.388 132.339H131.157V124.498C130.861 124.781 130.471 125.063 129.988 125.346C129.51 125.628 129.079 125.84 128.696 125.981V124.792C129.384 124.468 129.986 124.076 130.501 123.616C131.016 123.156 131.381 122.709 131.595 122.276H132.388V132.339ZM135.73 130.021L136.913 129.912C137.013 130.468 137.205 130.871 137.487 131.122C137.77 131.373 138.132 131.498 138.574 131.498C138.952 131.498 139.283 131.411 139.565 131.238C139.853 131.065 140.087 130.835 140.27 130.548C140.452 130.256 140.604 129.864 140.728 129.372C140.851 128.88 140.912 128.379 140.912 127.868C140.912 127.813 140.91 127.731 140.905 127.622C140.659 128.014 140.322 128.333 139.894 128.579C139.47 128.821 139.009 128.941 138.513 128.941C137.683 128.941 136.981 128.641 136.407 128.039C135.833 127.438 135.546 126.645 135.546 125.66C135.546 124.644 135.844 123.826 136.441 123.206C137.043 122.586 137.795 122.276 138.697 122.276C139.349 122.276 139.944 122.452 140.481 122.803C141.024 123.154 141.434 123.655 141.712 124.307C141.994 124.954 142.136 125.893 142.136 127.123C142.136 128.404 141.997 129.424 141.719 130.186C141.441 130.942 141.026 131.519 140.475 131.915C139.928 132.312 139.285 132.51 138.547 132.51C137.763 132.51 137.123 132.293 136.626 131.86C136.129 131.423 135.831 130.81 135.73 130.021ZM140.769 125.599C140.769 124.892 140.579 124.332 140.201 123.917C139.827 123.502 139.376 123.295 138.848 123.295C138.301 123.295 137.825 123.518 137.419 123.965C137.013 124.411 136.811 124.99 136.811 125.701C136.811 126.339 137.002 126.859 137.385 127.26C137.772 127.656 138.248 127.854 138.813 127.854C139.383 127.854 139.85 127.656 140.215 127.26C140.584 126.859 140.769 126.305 140.769 125.599Z" fill="#F2F2F2"/>
<path d="M274.575 109.339L270.993 99.3174H273.188L275.724 106.734L278.178 99.3174H280.324L276.735 109.339H274.575ZM289.354 109.339H287.153L286.278 107.062H282.272L281.445 109.339H279.299L283.202 99.3174H285.342L289.354 109.339ZM285.629 105.374L284.248 101.655L282.895 105.374H285.629ZM290.489 109.339V99.3994H292.513V107.65H297.544V109.339H290.489ZM298.932 109.339V99.3174H300.955V109.339H298.932ZM302.883 99.3174H306.581C307.415 99.3174 308.051 99.3812 308.488 99.5088C309.076 99.682 309.58 99.9896 309.999 100.432C310.418 100.874 310.737 101.416 310.956 102.059C311.175 102.697 311.284 103.485 311.284 104.424C311.284 105.249 311.182 105.96 310.977 106.557C310.726 107.286 310.368 107.876 309.903 108.327C309.552 108.669 309.078 108.936 308.481 109.127C308.035 109.268 307.438 109.339 306.69 109.339H302.883V99.3174ZM304.906 101.013V107.65H306.417C306.982 107.65 307.39 107.618 307.641 107.555C307.969 107.473 308.24 107.334 308.454 107.138C308.673 106.942 308.851 106.62 308.987 106.174C309.124 105.723 309.192 105.11 309.192 104.335C309.192 103.56 309.124 102.965 308.987 102.551C308.851 102.136 308.659 101.812 308.413 101.58C308.167 101.348 307.855 101.19 307.477 101.108C307.194 101.045 306.64 101.013 305.815 101.013H304.906ZM322.044 109.339H319.843L318.968 107.062H314.962L314.135 109.339H311.988L315.892 99.3174H318.031L322.044 109.339ZM318.318 105.374L316.938 101.655L315.584 105.374H318.318ZM324.341 109.339V101.013H321.367V99.3174H329.331V101.013H326.364V109.339H324.341ZM330.644 109.339V99.3174H338.074V101.013H332.667V103.234H337.698V104.923H332.667V107.65H338.266V109.339H330.644Z" fill="white"/>
<path d="M90.0186 109.339V99.3174H97.4492V101.013H92.042V103.234H97.0732V104.923H92.042V107.65H97.6406V109.339H90.0186ZM98.3379 109.339L101.763 104.109L98.6592 99.3174H101.024L103.034 102.537L105.003 99.3174H107.348L104.23 104.185L107.655 109.339H105.215L102.993 105.873L100.765 109.339H98.3379ZM108.694 109.339V99.3174H111.941C113.172 99.3174 113.974 99.3675 114.348 99.4678C114.922 99.6182 115.403 99.9463 115.79 100.452C116.177 100.953 116.371 101.603 116.371 102.4C116.371 103.016 116.259 103.533 116.036 103.952C115.813 104.371 115.528 104.702 115.182 104.943C114.84 105.18 114.491 105.338 114.136 105.415C113.653 105.511 112.953 105.559 112.037 105.559H110.718V109.339H108.694ZM110.718 101.013V103.856H111.825C112.623 103.856 113.156 103.804 113.425 103.699C113.694 103.594 113.903 103.43 114.054 103.207C114.209 102.984 114.286 102.724 114.286 102.428C114.286 102.063 114.179 101.762 113.965 101.525C113.751 101.288 113.479 101.14 113.151 101.081C112.91 101.035 112.424 101.013 111.695 101.013H110.718ZM118.087 109.339V99.3994H120.11V107.65H125.142V109.339H118.087ZM126.181 104.39C126.181 103.369 126.333 102.512 126.639 101.819C126.867 101.309 127.176 100.851 127.568 100.445C127.965 100.04 128.398 99.7389 128.867 99.543C129.492 99.2786 130.212 99.1465 131.027 99.1465C132.504 99.1465 133.684 99.6045 134.568 100.521C135.457 101.437 135.901 102.71 135.901 104.342C135.901 105.96 135.462 107.227 134.582 108.143C133.702 109.054 132.527 109.51 131.055 109.51C129.564 109.51 128.38 109.056 127.5 108.149C126.62 107.238 126.181 105.985 126.181 104.39ZM128.266 104.321C128.266 105.456 128.528 106.317 129.052 106.905C129.576 107.489 130.241 107.78 131.048 107.78C131.854 107.78 132.515 107.491 133.03 106.912C133.55 106.329 133.81 105.456 133.81 104.294C133.81 103.146 133.557 102.289 133.051 101.724C132.549 101.159 131.882 100.876 131.048 100.876C130.214 100.876 129.542 101.163 129.031 101.737C128.521 102.307 128.266 103.168 128.266 104.321ZM137.494 109.339V99.3174H141.753C142.824 99.3174 143.601 99.4085 144.084 99.5908C144.572 99.7686 144.961 100.088 145.253 100.548C145.545 101.008 145.69 101.535 145.69 102.127C145.69 102.879 145.469 103.501 145.027 103.993C144.585 104.481 143.924 104.788 143.045 104.916C143.482 105.171 143.842 105.451 144.125 105.757C144.412 106.062 144.797 106.604 145.28 107.384L146.504 109.339H144.084L142.621 107.158C142.102 106.379 141.746 105.889 141.555 105.688C141.363 105.483 141.16 105.344 140.946 105.271C140.732 105.194 140.393 105.155 139.928 105.155H139.518V109.339H137.494ZM139.518 103.556H141.015C141.985 103.556 142.591 103.515 142.833 103.433C143.075 103.351 143.264 103.209 143.4 103.009C143.537 102.808 143.605 102.558 143.605 102.257C143.605 101.92 143.514 101.648 143.332 101.443C143.154 101.234 142.901 101.102 142.573 101.047C142.409 101.024 141.917 101.013 141.097 101.013H139.518V103.556ZM147.604 109.339V99.3174H155.035V101.013H149.628V103.234H154.659V104.923H149.628V107.65H155.227V109.339H147.604Z" fill="white"/>
<path d="M90.0186 109.339H85.0186V114.339H90.0186V109.339ZM90.0186 99.3174V94.3174H85.0186V99.3174H90.0186ZM97.4492 99.3174H102.449V94.3174H97.4492V99.3174ZM97.4492 101.013V106.013H102.449V101.013H97.4492ZM92.042 101.013V96.0127H87.042V101.013H92.042ZM92.042 103.234H87.042V108.234H92.042V103.234ZM97.0732 103.234H102.073V98.2344H97.0732V103.234ZM97.0732 104.923V109.923H102.073V104.923H97.0732ZM92.042 104.923V99.9229H87.042V104.923H92.042ZM92.042 107.65H87.042V112.65H92.042V107.65ZM97.6406 107.65H102.641V102.65H97.6406V107.65ZM97.6406 109.339V114.339H102.641V109.339H97.6406ZM95.0186 109.339V99.3174H85.0186V109.339H95.0186ZM90.0186 104.317H97.4492V94.3174H90.0186V104.317ZM92.4492 99.3174V101.013H102.449V99.3174H92.4492ZM97.4492 96.0127H92.042V106.013H97.4492V96.0127ZM87.042 101.013V103.234H97.042V101.013H87.042ZM92.042 108.234H97.0732V98.2344H92.042V108.234ZM92.0732 103.234V104.923H102.073V103.234H92.0732ZM97.0732 99.9229H92.042V109.923H97.0732V99.9229ZM87.042 104.923V107.65H97.042V104.923H87.042ZM92.042 112.65H97.6406V102.65H92.042V112.65ZM92.6406 107.65V109.339H102.641V107.65H92.6406ZM97.6406 104.339H90.0186V114.339H97.6406V104.339ZM98.3379 109.339L94.1551 106.6L89.0866 114.339H98.3379V109.339ZM101.763 104.109L105.946 106.849L107.73 104.125L105.959 101.391L101.763 104.109ZM98.6592 99.3174V94.3174H89.4639L94.4625 102.035L98.6592 99.3174ZM101.024 99.3174L105.266 96.6698L103.798 94.3174H101.024V99.3174ZM103.034 102.537L98.7927 105.185L103.078 112.05L107.3 105.145L103.034 102.537ZM105.003 99.3174V94.3174H102.2L100.737 96.709L105.003 99.3174ZM107.348 99.3174L111.558 102.014L116.487 94.3174H107.348V99.3174ZM104.23 104.185L100.02 101.488L98.2607 104.235L100.066 106.952L104.23 104.185ZM107.655 109.339V114.339H116.981L111.82 106.572L107.655 109.339ZM105.215 109.339L101.005 112.037L102.481 114.339H105.215V109.339ZM102.993 105.873L107.203 103.175L103 96.6181L98.7875 103.169L102.993 105.873ZM100.765 109.339V114.339H103.494L104.97 112.043L100.765 109.339ZM102.521 112.078L105.946 106.849L97.5799 101.37L94.1551 106.6L102.521 112.078ZM105.959 101.391L102.856 96.5994L94.4625 102.035L97.566 106.827L105.959 101.391ZM98.6592 104.317H101.024V94.3174H98.6592V104.317ZM96.7829 101.965L98.7927 105.185L107.276 99.8895L105.266 96.6698L96.7829 101.965ZM107.3 105.145L109.269 101.926L100.737 96.709L98.7684 99.9288L107.3 105.145ZM105.003 104.317H107.348V94.3174H105.003V104.317ZM103.137 96.6208L100.02 101.488L108.441 106.881L111.558 102.014L103.137 96.6208ZM100.066 106.952L103.491 112.106L111.82 106.572L108.395 101.417L100.066 106.952ZM107.655 104.339H105.215V114.339H107.655V104.339ZM109.424 106.641L107.203 103.175L98.7838 108.571L101.005 112.037L109.424 106.641ZM98.7875 103.169L96.559 106.635L104.97 112.043L107.199 108.577L98.7875 103.169ZM100.765 104.339H98.3379V114.339H100.765V104.339ZM108.694 109.339H103.694V114.339H108.694V109.339ZM108.694 99.3174V94.3174H103.694V99.3174H108.694ZM114.348 99.4678L113.052 104.297L113.066 104.301L113.081 104.305L114.348 99.4678ZM115.79 100.452L111.82 103.492L111.827 103.501L111.834 103.509L115.79 100.452ZM115.182 104.943L118.031 109.052L118.042 109.045L115.182 104.943ZM114.136 105.415L115.107 110.32L115.154 110.31L115.2 110.3L114.136 105.415ZM110.718 105.559V100.559H105.718V105.559H110.718ZM110.718 109.339V114.339H115.718V109.339H110.718ZM110.718 101.013V96.0127H105.718V101.013H110.718ZM110.718 103.856H105.718V108.856H110.718V103.856ZM114.054 103.207L109.946 100.357L109.926 100.385L109.907 100.414L114.054 103.207ZM113.965 101.525L110.255 104.878L113.965 101.525ZM113.151 101.081L112.224 105.994L112.244 105.998L112.263 106.001L113.151 101.081ZM113.694 109.339V99.3174H103.694V109.339H113.694ZM108.694 104.317H111.941V94.3174H108.694V104.317ZM111.941 104.317C112.501 104.317 112.896 104.329 113.154 104.345C113.282 104.353 113.343 104.36 113.353 104.362C113.38 104.365 113.258 104.352 113.052 104.297L115.643 94.6386C114.518 94.3366 113.028 94.3174 111.941 94.3174V104.317ZM113.081 104.305C112.825 104.238 112.562 104.122 112.32 103.957C112.082 103.794 111.92 103.622 111.82 103.492L119.76 97.4122C118.749 96.0926 117.346 95.0843 115.614 94.6309L113.081 104.305ZM111.834 103.509C111.626 103.24 111.501 102.968 111.434 102.744C111.371 102.532 111.371 102.402 111.371 102.4H121.371C121.371 100.788 120.969 98.9772 119.746 97.3949L111.834 103.509ZM111.371 102.4C111.371 102.431 111.364 102.088 111.623 101.602L120.449 106.303C121.155 104.978 121.371 103.601 121.371 102.4H111.371ZM111.623 101.602C111.725 101.411 111.942 101.107 112.322 100.842L118.042 109.045C119.114 108.297 119.901 107.332 120.449 106.303L111.623 101.602ZM112.333 100.834C112.453 100.751 112.702 100.61 113.071 100.53L115.2 110.3C116.281 110.065 117.227 109.609 118.031 109.052L112.333 100.834ZM113.164 100.51C113.197 100.504 113.126 100.519 112.908 100.534C112.7 100.549 112.414 100.559 112.037 100.559V110.559C113.052 110.559 114.14 110.511 115.107 110.32L113.164 100.51ZM112.037 100.559H110.718V110.559H112.037V100.559ZM105.718 105.559V109.339H115.718V105.559H105.718ZM110.718 104.339H108.694V114.339H110.718V104.339ZM105.718 101.013V103.856H115.718V101.013H105.718ZM110.718 108.856H111.825V98.8564H110.718V108.856ZM111.825 108.856C112.317 108.856 112.826 108.841 113.312 108.793C113.716 108.753 114.461 108.662 115.241 108.358L111.609 99.0407C111.766 98.9794 111.898 98.9392 111.991 98.9136C112.086 98.8875 112.162 98.8712 112.212 98.8614C112.307 98.8427 112.354 98.8391 112.334 98.8411C112.318 98.8427 112.268 98.8469 112.177 98.8505C112.087 98.854 111.971 98.8564 111.825 98.8564V108.856ZM115.241 108.358C116.387 107.911 117.44 107.13 118.201 106L109.907 100.414C110.367 99.7308 111.001 99.2778 111.609 99.0407L115.241 108.358ZM118.162 106.057C118.95 104.922 119.286 103.647 119.286 102.428H109.286C109.286 101.801 109.467 101.046 109.946 100.357L118.162 106.057ZM119.286 102.428C119.286 101.012 118.837 99.4589 117.674 98.1727L110.255 104.878C109.922 104.509 109.662 104.075 109.495 103.606C109.332 103.147 109.286 102.737 109.286 102.428H119.286ZM117.674 98.1727C116.685 97.0779 115.404 96.407 114.04 96.1606L112.263 106.001C111.555 105.874 110.817 105.499 110.255 104.878L117.674 98.1727ZM114.078 96.1677C113.302 96.0213 112.349 96.0127 111.695 96.0127V106.013C112.016 106.013 112.235 106.018 112.372 106.024C112.439 106.027 112.464 106.03 112.456 106.029C112.451 106.029 112.43 106.027 112.396 106.022C112.363 106.018 112.303 106.009 112.224 105.994L114.078 96.1677ZM111.695 96.0127H110.718V106.013H111.695V96.0127ZM118.087 109.339H113.087V114.339H118.087V109.339ZM118.087 99.3994V94.3994H113.087V99.3994H118.087ZM120.11 99.3994H125.11V94.3994H120.11V99.3994ZM120.11 107.65H115.11V112.65H120.11V107.65ZM125.142 107.65H130.142V102.65H125.142V107.65ZM125.142 109.339V114.339H130.142V109.339H125.142ZM123.087 109.339V99.3994H113.087V109.339H123.087ZM118.087 104.399H120.11V94.3994H118.087V104.399ZM115.11 99.3994V107.65H125.11V99.3994H115.11ZM120.11 112.65H125.142V102.65H120.11V112.65ZM120.142 107.65V109.339H130.142V107.65H120.142ZM125.142 104.339H118.087V114.339H125.142V104.339ZM126.639 101.819L122.073 99.7811L122.068 99.7918L122.063 99.8026L126.639 101.819ZM127.568 100.445L123.993 96.9502L123.983 96.9605L123.973 96.9709L127.568 100.445ZM128.867 99.543L130.793 104.157L130.805 104.152L130.816 104.147L128.867 99.543ZM134.568 100.521L130.971 103.993L130.98 104.002L134.568 100.521ZM134.582 108.143L138.18 111.615L138.189 111.606L134.582 108.143ZM127.5 108.149L123.902 111.621L123.911 111.63L127.5 108.149ZM129.052 106.905L125.32 110.232L125.326 110.24L125.332 110.247L129.052 106.905ZM133.03 106.912L129.296 103.587L129.295 103.588L133.03 106.912ZM133.051 101.724L129.31 105.042L129.318 105.05L129.325 105.058L133.051 101.724ZM129.031 101.737L132.755 105.074L132.762 105.067L132.768 105.059L129.031 101.737ZM131.181 104.39C131.181 104.124 131.201 103.953 131.218 103.859C131.234 103.765 131.244 103.768 131.214 103.836L122.063 99.8026C121.399 101.311 121.181 102.903 121.181 104.39H131.181ZM131.204 103.858C131.201 103.866 131.193 103.88 131.183 103.895C131.178 103.902 131.174 103.908 131.17 103.913C131.168 103.915 131.167 103.917 131.166 103.918C131.165 103.919 131.165 103.919 131.164 103.919C131.164 103.92 131.164 103.92 131.164 103.92L123.973 96.9709C123.18 97.7912 122.54 98.7342 122.073 99.7811L131.204 103.858ZM131.144 103.94C131.125 103.959 131.011 104.066 130.793 104.157L126.941 94.9289C125.785 95.4116 124.804 96.12 123.993 96.9502L131.144 103.94ZM130.816 104.147C130.712 104.191 130.748 104.146 131.027 104.146V94.1465C129.675 94.1465 128.271 94.3658 126.918 94.9386L130.816 104.147ZM131.027 104.146C131.248 104.146 131.285 104.18 131.211 104.151C131.176 104.138 131.129 104.115 131.079 104.082C131.03 104.049 130.993 104.016 130.971 103.993L138.166 97.0482C136.187 94.9983 133.625 94.1465 131.027 94.1465V104.146ZM130.98 104.002C130.941 103.962 130.907 103.918 130.881 103.874C130.855 103.832 130.846 103.807 130.847 103.81C130.851 103.82 130.901 103.973 130.901 104.342H140.901C140.901 101.788 140.183 99.1277 138.157 97.0389L130.98 104.002ZM130.901 104.342C130.901 104.704 130.852 104.856 130.848 104.866C130.847 104.869 130.855 104.845 130.88 104.804C130.905 104.762 130.938 104.718 130.975 104.68L138.189 111.606C140.189 109.523 140.901 106.882 140.901 104.342H130.901ZM130.984 104.671C131.008 104.646 131.046 104.612 131.098 104.578C131.149 104.544 131.197 104.52 131.234 104.506C131.31 104.476 131.274 104.51 131.055 104.51V114.51C133.644 114.51 136.204 113.662 138.18 111.615L130.984 104.671ZM131.055 104.51C130.816 104.51 130.767 104.474 130.835 104.5C130.869 104.513 130.916 104.535 130.968 104.569C131.02 104.604 131.061 104.64 131.089 104.668L123.911 111.63C125.9 113.682 128.474 114.51 131.055 114.51V104.51ZM131.098 104.677C131.133 104.714 131.166 104.757 131.192 104.8C131.205 104.82 131.214 104.837 131.22 104.85C131.226 104.863 131.228 104.87 131.228 104.87C131.228 104.87 131.225 104.862 131.221 104.844C131.217 104.826 131.211 104.798 131.205 104.759C131.192 104.68 131.181 104.56 131.181 104.39H121.181C121.181 106.928 121.905 109.552 123.902 111.621L131.098 104.677ZM123.266 104.321C123.266 106.149 123.682 108.396 125.32 110.232L132.784 103.578C133.068 103.897 133.196 104.2 133.246 104.363C133.29 104.508 133.266 104.518 133.266 104.321H123.266ZM125.332 110.247C126.835 111.92 128.869 112.78 131.048 112.78V102.78C131.259 102.78 131.584 102.821 131.951 102.982C132.321 103.144 132.596 103.368 132.771 103.564L125.332 110.247ZM131.048 112.78C133.215 112.78 135.258 111.93 136.766 110.236L129.295 103.588C129.481 103.38 129.765 103.149 130.143 102.983C130.516 102.82 130.843 102.78 131.048 102.78V112.78ZM136.764 110.238C138.418 108.381 138.81 106.099 138.81 104.294H128.81C128.81 104.518 128.783 104.527 128.823 104.394C128.867 104.243 128.994 103.926 129.296 103.587L136.764 110.238ZM138.81 104.294C138.81 102.528 138.436 100.243 136.776 98.3888L129.325 105.058C129.003 104.699 128.871 104.363 128.824 104.206C128.783 104.065 128.81 104.07 128.81 104.294H138.81ZM136.791 98.4056C135.236 96.6522 133.145 95.876 131.048 95.876V105.876C130.895 105.876 130.594 105.848 130.225 105.693C129.845 105.531 129.532 105.292 129.31 105.042L136.791 98.4056ZM131.048 95.876C128.923 95.876 126.841 96.6753 125.294 98.4155L132.768 105.059C132.559 105.294 132.259 105.529 131.882 105.689C131.516 105.846 131.211 105.876 131.048 105.876V95.876ZM125.307 98.4007C123.645 100.256 123.266 102.543 123.266 104.321H133.266C133.266 104.097 133.292 104.091 133.251 104.231C133.205 104.387 133.073 104.719 132.755 105.074L125.307 98.4007ZM137.494 109.339H132.494V114.339H137.494V109.339ZM137.494 99.3174V94.3174H132.494V99.3174H137.494ZM144.084 99.5908L142.319 104.269L142.345 104.279L142.372 104.289L144.084 99.5908ZM145.027 103.993L148.732 107.351L148.74 107.343L148.747 107.334L145.027 103.993ZM143.045 104.916L142.327 99.9678L128.162 102.023L140.526 109.235L143.045 104.916ZM144.125 105.757L140.455 109.153L140.469 109.167L140.482 109.182L144.125 105.757ZM145.28 107.384L141.031 110.018L141.036 110.027L141.042 110.036L145.28 107.384ZM146.504 109.339V114.339H155.532L150.742 106.686L146.504 109.339ZM144.084 109.339L139.932 112.124L141.417 114.339H144.084V109.339ZM142.621 107.158L138.461 109.932L138.465 109.938L138.469 109.944L142.621 107.158ZM141.555 105.688L137.899 109.1L137.919 109.121L137.938 109.141L141.555 105.688ZM140.946 105.271L139.246 109.973L139.29 109.989L139.335 110.005L140.946 105.271ZM139.518 105.155V100.155H134.518V105.155H139.518ZM139.518 109.339V114.339H144.518V109.339H139.518ZM139.518 103.556H134.518V108.556H139.518V103.556ZM143.332 101.443L139.518 104.677L139.556 104.721L139.595 104.765L143.332 101.443ZM142.573 101.047L143.395 96.1149L143.328 96.1037L143.261 96.0944L142.573 101.047ZM139.518 101.013V96.0127H134.518V101.013H139.518ZM142.494 109.339V99.3174H132.494V109.339H142.494ZM137.494 104.317H141.753V94.3174H137.494V104.317ZM141.753 104.317C142.159 104.317 142.417 104.335 142.556 104.352C142.623 104.359 142.636 104.364 142.606 104.357C142.58 104.352 142.476 104.328 142.319 104.269L145.849 94.9128C144.469 94.392 142.921 94.3174 141.753 94.3174V104.317ZM142.372 104.289C142.104 104.191 141.828 104.04 141.575 103.832C141.323 103.626 141.146 103.408 141.029 103.224L149.476 97.8716C148.625 96.5287 147.375 95.4687 145.796 94.8931L142.372 104.289ZM141.029 103.224C140.911 103.038 140.821 102.832 140.763 102.623C140.705 102.416 140.69 102.244 140.69 102.127H150.69C150.69 100.673 150.319 99.202 149.476 97.8716L141.029 103.224ZM140.69 102.127C140.69 102.011 140.708 101.779 140.813 101.483C140.922 101.178 141.093 100.891 141.307 100.652L148.747 107.334C150.127 105.798 150.69 103.932 150.69 102.127H140.69ZM141.323 100.635C141.897 100.002 142.46 99.9486 142.327 99.9678L143.763 109.864C145.389 109.628 147.274 108.96 148.732 107.351L141.323 100.635ZM140.526 109.235C140.573 109.262 140.585 109.273 140.572 109.263C140.558 109.252 140.515 109.217 140.455 109.153L147.795 102.361C147.113 101.624 146.339 101.049 145.564 100.597L140.526 109.235ZM140.482 109.182C140.406 109.101 140.425 109.108 140.552 109.287C140.667 109.449 140.825 109.687 141.031 110.018L149.53 104.749C149.028 103.939 148.422 103.028 147.768 102.332L140.482 109.182ZM141.042 110.036L142.266 111.992L150.742 106.686L149.519 104.731L141.042 110.036ZM146.504 104.339H144.084V114.339H146.504V104.339ZM148.236 106.553L146.773 104.373L138.469 109.944L139.932 112.124L148.236 106.553ZM146.781 104.385C146.324 103.699 145.723 102.814 145.171 102.236L137.938 109.141C137.837 109.035 137.788 108.971 137.81 108.998C137.822 109.013 137.856 109.058 137.918 109.143C138.042 109.314 138.22 109.571 138.461 109.932L146.781 104.385ZM145.21 102.277C144.589 101.612 143.717 100.933 142.558 100.538L139.335 110.005C138.604 109.756 138.137 109.355 137.899 109.1L145.21 102.277ZM142.647 100.57C141.571 100.181 140.498 100.155 139.928 100.155V110.155C140.033 110.155 140.036 110.16 139.964 110.152C139.925 110.148 139.845 110.137 139.735 110.114C139.628 110.092 139.457 110.05 139.246 109.973L142.647 100.57ZM139.928 100.155H139.518V110.155H139.928V100.155ZM134.518 105.155V109.339H144.518V105.155H134.518ZM139.518 104.339H137.494V114.339H139.518V104.339ZM139.518 108.556H141.015V98.5557H139.518V108.556ZM141.015 108.556C141.555 108.556 142.074 108.545 142.535 108.513C142.84 108.493 143.639 108.439 144.441 108.167L141.225 98.6982C141.329 98.663 141.419 98.6368 141.49 98.6178C141.561 98.5986 141.623 98.5843 141.671 98.5739C141.765 98.5537 141.833 98.543 141.865 98.5383C141.9 98.5333 141.917 98.5317 141.912 98.5322C141.908 98.5326 141.892 98.5342 141.86 98.5363C141.794 98.5408 141.691 98.5458 141.544 98.5497C141.399 98.5534 141.223 98.5557 141.015 98.5557V108.556ZM144.441 108.167C145.653 107.755 146.751 106.97 147.532 105.825L139.269 100.192C139.776 99.449 140.496 98.9459 141.225 98.6982L144.441 108.167ZM147.532 105.825C148.357 104.615 148.605 103.32 148.605 102.257H138.605C138.605 101.795 138.717 101.002 139.269 100.192L147.532 105.825ZM148.605 102.257C148.605 100.988 148.24 99.4393 147.069 98.1215L139.595 104.765C138.788 103.858 138.605 102.851 138.605 102.257H148.605ZM147.146 98.2099C146.051 96.9183 144.634 96.3214 143.395 96.1149L141.751 105.979C141.168 105.882 140.258 105.549 139.518 104.677L147.146 98.2099ZM143.261 96.0944C142.666 96.0118 141.739 96.0127 141.097 96.0127V106.013C141.49 106.013 141.775 106.015 141.965 106.02C142.061 106.022 142.112 106.024 142.129 106.025C142.136 106.026 142.122 106.025 142.093 106.023C142.069 106.021 141.993 106.014 141.885 105.999L143.261 96.0944ZM141.097 96.0127H139.518V106.013H141.097V96.0127ZM134.518 101.013V103.556H144.518V101.013H134.518ZM147.604 109.339H142.604V114.339H147.604V109.339ZM147.604 99.3174V94.3174H142.604V99.3174H147.604ZM155.035 99.3174H160.035V94.3174H155.035V99.3174ZM155.035 101.013V106.013H160.035V101.013H155.035ZM149.628 101.013V96.0127H144.628V101.013H149.628ZM149.628 103.234H144.628V108.234H149.628V103.234ZM154.659 103.234H159.659V98.2344H154.659V103.234ZM154.659 104.923V109.923H159.659V104.923H154.659ZM149.628 104.923V99.9229H144.628V104.923H149.628ZM149.628 107.65H144.628V112.65H149.628V107.65ZM155.227 107.65H160.227V102.65H155.227V107.65ZM155.227 109.339V114.339H160.227V109.339H155.227ZM152.604 109.339V99.3174H142.604V109.339H152.604ZM147.604 104.317H155.035V94.3174H147.604V104.317ZM150.035 99.3174V101.013H160.035V99.3174H150.035ZM155.035 96.0127H149.628V106.013H155.035V96.0127ZM144.628 101.013V103.234H154.628V101.013H144.628ZM149.628 108.234H154.659V98.2344H149.628V108.234ZM149.659 103.234V104.923H159.659V103.234H149.659ZM154.659 99.9229H149.628V109.923H154.659V99.9229ZM144.628 104.923V107.65H154.628V104.923H144.628ZM149.628 112.65H155.227V102.65H149.628V112.65ZM150.227 107.65V109.339H160.227V107.65H150.227ZM155.227 104.339H147.604V114.339H155.227V104.339Z" fill="#111111"/>
<path d="M90.0186 109.339V99.3174H97.4492V101.013H92.042V103.234H97.0732V104.923H92.042V107.65H97.6406V109.339H90.0186ZM98.3379 109.339L101.763 104.109L98.6592 99.3174H101.024L103.034 102.537L105.003 99.3174H107.348L104.23 104.185L107.655 109.339H105.215L102.993 105.873L100.765 109.339H98.3379ZM108.694 109.339V99.3174H111.941C113.172 99.3174 113.974 99.3675 114.348 99.4678C114.922 99.6182 115.403 99.9463 115.79 100.452C116.177 100.953 116.371 101.603 116.371 102.4C116.371 103.016 116.259 103.533 116.036 103.952C115.813 104.371 115.528 104.702 115.182 104.943C114.84 105.18 114.491 105.338 114.136 105.415C113.653 105.511 112.953 105.559 112.037 105.559H110.718V109.339H108.694ZM110.718 101.013V103.856H111.825C112.623 103.856 113.156 103.804 113.425 103.699C113.694 103.594 113.903 103.43 114.054 103.207C114.209 102.984 114.286 102.724 114.286 102.428C114.286 102.063 114.179 101.762 113.965 101.525C113.751 101.288 113.479 101.14 113.151 101.081C112.91 101.035 112.424 101.013 111.695 101.013H110.718ZM118.087 109.339V99.3994H120.11V107.65H125.142V109.339H118.087ZM126.181 104.39C126.181 103.369 126.333 102.512 126.639 101.819C126.867 101.309 127.176 100.851 127.568 100.445C127.965 100.04 128.398 99.7389 128.867 99.543C129.492 99.2786 130.212 99.1465 131.027 99.1465C132.504 99.1465 133.684 99.6045 134.568 100.521C135.457 101.437 135.901 102.71 135.901 104.342C135.901 105.96 135.462 107.227 134.582 108.143C133.702 109.054 132.527 109.51 131.055 109.51C129.564 109.51 128.38 109.056 127.5 108.149C126.62 107.238 126.181 105.985 126.181 104.39ZM128.266 104.321C128.266 105.456 128.528 106.317 129.052 106.905C129.576 107.489 130.241 107.78 131.048 107.78C131.854 107.78 132.515 107.491 133.03 106.912C133.55 106.329 133.81 105.456 133.81 104.294C133.81 103.146 133.557 102.289 133.051 101.724C132.549 101.159 131.882 100.876 131.048 100.876C130.214 100.876 129.542 101.163 129.031 101.737C128.521 102.307 128.266 103.168 128.266 104.321ZM137.494 109.339V99.3174H141.753C142.824 99.3174 143.601 99.4085 144.084 99.5908C144.572 99.7686 144.961 100.088 145.253 100.548C145.545 101.008 145.69 101.535 145.69 102.127C145.69 102.879 145.469 103.501 145.027 103.993C144.585 104.481 143.924 104.788 143.045 104.916C143.482 105.171 143.842 105.451 144.125 105.757C144.412 106.062 144.797 106.604 145.28 107.384L146.504 109.339H144.084L142.621 107.158C142.102 106.379 141.746 105.889 141.555 105.688C141.363 105.483 141.16 105.344 140.946 105.271C140.732 105.194 140.393 105.155 139.928 105.155H139.518V109.339H137.494ZM139.518 103.556H141.015C141.985 103.556 142.591 103.515 142.833 103.433C143.075 103.351 143.264 103.209 143.4 103.009C143.537 102.808 143.605 102.558 143.605 102.257C143.605 101.92 143.514 101.648 143.332 101.443C143.154 101.234 142.901 101.102 142.573 101.047C142.409 101.024 141.917 101.013 141.097 101.013H139.518V103.556ZM147.604 109.339V99.3174H155.035V101.013H149.628V103.234H154.659V104.923H149.628V107.65H155.227V109.339H147.604Z" fill="white"/>
<path d="M643.675 131.266C644.29 131.689 644.857 131.999 645.377 132.195L644.987 133.118C644.267 132.858 643.549 132.448 642.834 131.888C642.091 132.302 641.271 132.51 640.373 132.51C639.466 132.51 638.644 132.291 637.905 131.854C637.167 131.416 636.597 130.801 636.196 130.008C635.8 129.215 635.602 128.322 635.602 127.328C635.602 126.339 635.802 125.439 636.203 124.628C636.604 123.817 637.174 123.199 637.912 122.775C638.655 122.352 639.484 122.14 640.4 122.14C641.326 122.14 642.16 122.361 642.902 122.803C643.645 123.24 644.21 123.855 644.598 124.648C644.99 125.437 645.186 126.328 645.186 127.321C645.186 128.146 645.06 128.889 644.81 129.55C644.559 130.206 644.181 130.778 643.675 131.266ZM640.756 129.57C641.521 129.785 642.153 130.104 642.649 130.527C643.429 129.816 643.818 128.748 643.818 127.321C643.818 126.51 643.679 125.801 643.401 125.195C643.128 124.589 642.725 124.12 642.191 123.787C641.663 123.45 641.068 123.281 640.407 123.281C639.418 123.281 638.598 123.621 637.946 124.3C637.295 124.974 636.969 125.984 636.969 127.328C636.969 128.632 637.29 129.632 637.933 130.329C638.58 131.026 639.405 131.375 640.407 131.375C640.881 131.375 641.328 131.286 641.747 131.108C641.332 130.84 640.895 130.648 640.435 130.534L640.756 129.57ZM646.484 129.693L647.715 129.529C647.856 130.227 648.095 130.73 648.433 131.04C648.774 131.345 649.189 131.498 649.677 131.498C650.256 131.498 650.743 131.298 651.14 130.896C651.541 130.495 651.741 129.999 651.741 129.406C651.741 128.841 651.557 128.376 651.188 128.012C650.818 127.643 650.349 127.458 649.779 127.458C649.547 127.458 649.257 127.504 648.911 127.595L649.048 126.515C649.13 126.524 649.196 126.528 649.246 126.528C649.77 126.528 650.242 126.392 650.661 126.118C651.08 125.845 651.29 125.423 651.29 124.854C651.29 124.402 651.137 124.029 650.832 123.732C650.527 123.436 650.132 123.288 649.649 123.288C649.171 123.288 648.772 123.438 648.453 123.739C648.134 124.04 647.929 124.491 647.838 125.093L646.607 124.874C646.758 124.049 647.1 123.411 647.633 122.96C648.166 122.504 648.829 122.276 649.622 122.276C650.169 122.276 650.673 122.395 651.133 122.632C651.593 122.864 651.944 123.183 652.186 123.589C652.432 123.994 652.555 124.425 652.555 124.881C652.555 125.314 652.438 125.708 652.206 126.063C651.974 126.419 651.63 126.701 651.174 126.911C651.766 127.048 652.227 127.333 652.555 127.766C652.883 128.194 653.047 128.732 653.047 129.379C653.047 130.254 652.728 130.997 652.09 131.607C651.452 132.214 650.645 132.517 649.67 132.517C648.79 132.517 648.059 132.255 647.476 131.73C646.897 131.206 646.566 130.527 646.484 129.693ZM664.634 131.156V132.339H658.01C658.001 132.043 658.049 131.758 658.153 131.484C658.322 131.033 658.591 130.589 658.96 130.151C659.334 129.714 659.871 129.208 660.573 128.634C661.662 127.741 662.398 127.034 662.781 126.515C663.164 125.991 663.355 125.496 663.355 125.031C663.355 124.544 663.18 124.133 662.829 123.801C662.483 123.464 662.029 123.295 661.469 123.295C660.876 123.295 660.402 123.473 660.047 123.828C659.691 124.184 659.511 124.676 659.507 125.305L658.242 125.175C658.329 124.231 658.655 123.514 659.22 123.021C659.785 122.525 660.544 122.276 661.496 122.276C662.458 122.276 663.219 122.543 663.779 123.076C664.34 123.609 664.62 124.27 664.62 125.059C664.62 125.46 664.538 125.854 664.374 126.241C664.21 126.629 663.937 127.036 663.554 127.465C663.175 127.893 662.544 128.481 661.66 129.229C660.922 129.848 660.448 130.27 660.238 130.493C660.029 130.712 659.855 130.933 659.719 131.156H664.634ZM665.96 127.396C665.96 126.212 666.081 125.259 666.322 124.539C666.568 123.814 666.931 123.256 667.409 122.864C667.892 122.472 668.498 122.276 669.228 122.276C669.765 122.276 670.237 122.386 670.643 122.604C671.048 122.819 671.383 123.131 671.647 123.541C671.912 123.947 672.119 124.443 672.27 125.031C672.42 125.615 672.495 126.403 672.495 127.396C672.495 128.572 672.374 129.522 672.133 130.247C671.891 130.967 671.529 131.525 671.046 131.922C670.567 132.314 669.961 132.51 669.228 132.51C668.261 132.51 667.503 132.163 666.951 131.471C666.29 130.637 665.96 129.279 665.96 127.396ZM667.225 127.396C667.225 129.042 667.416 130.138 667.799 130.685C668.186 131.227 668.662 131.498 669.228 131.498C669.793 131.498 670.267 131.225 670.649 130.678C671.037 130.131 671.23 129.037 671.23 127.396C671.23 125.747 671.037 124.651 670.649 124.108C670.267 123.566 669.788 123.295 669.214 123.295C668.649 123.295 668.198 123.534 667.86 124.013C667.437 124.623 667.225 125.751 667.225 127.396ZM680.22 131.156V132.339H673.596C673.587 132.043 673.634 131.758 673.739 131.484C673.908 131.033 674.177 130.589 674.546 130.151C674.92 129.714 675.457 129.208 676.159 128.634C677.248 127.741 677.984 127.034 678.367 126.515C678.75 125.991 678.941 125.496 678.941 125.031C678.941 124.544 678.766 124.133 678.415 123.801C678.069 123.464 677.615 123.295 677.055 123.295C676.462 123.295 675.988 123.473 675.633 123.828C675.277 124.184 675.097 124.676 675.093 125.305L673.828 125.175C673.915 124.231 674.241 123.514 674.806 123.021C675.371 122.525 676.13 122.276 677.082 122.276C678.044 122.276 678.805 122.543 679.365 123.076C679.926 123.609 680.206 124.27 680.206 125.059C680.206 125.46 680.124 125.854 679.96 126.241C679.796 126.629 679.522 127.036 679.14 127.465C678.761 127.893 678.13 128.481 677.246 129.229C676.508 129.848 676.034 130.27 675.824 130.493C675.615 130.712 675.441 130.933 675.305 131.156H680.22ZM681.546 127.396C681.546 126.212 681.667 125.259 681.908 124.539C682.154 123.814 682.517 123.256 682.995 122.864C683.478 122.472 684.084 122.276 684.813 122.276C685.351 122.276 685.823 122.386 686.229 122.604C686.634 122.819 686.969 123.131 687.233 123.541C687.498 123.947 687.705 124.443 687.855 125.031C688.006 125.615 688.081 126.403 688.081 127.396C688.081 128.572 687.96 129.522 687.719 130.247C687.477 130.967 687.115 131.525 686.632 131.922C686.153 132.314 685.547 132.51 684.813 132.51C683.847 132.51 683.089 132.163 682.537 131.471C681.876 130.637 681.546 129.279 681.546 127.396ZM682.811 127.396C682.811 129.042 683.002 130.138 683.385 130.685C683.772 131.227 684.248 131.498 684.813 131.498C685.379 131.498 685.853 131.225 686.235 130.678C686.623 130.131 686.816 129.037 686.816 127.396C686.816 125.747 686.623 124.651 686.235 124.108C685.853 123.566 685.374 123.295 684.8 123.295C684.235 123.295 683.784 123.534 683.446 124.013C683.022 124.623 682.811 125.751 682.811 127.396Z" fill="#F2F2F2"/>
<path d="M636.019 109.339V99.3174H643.449V101.013H638.042V103.234H643.073V104.923H638.042V107.65H643.641V109.339H636.019ZM644.338 109.339L647.763 104.109L644.659 99.3174H647.024L649.034 102.537L651.003 99.3174H653.348L650.23 104.185L653.655 109.339H651.215L648.993 105.873L646.765 109.339H644.338ZM656.95 109.339V101.013H653.977V99.3174H661.94V101.013H658.974V109.339H656.95ZM663.253 109.339V99.3174H670.684V101.013H665.276V103.234H670.308V104.923H665.276V107.65H670.875V109.339H663.253ZM672.611 109.339V99.3174H674.58L678.682 106.01V99.3174H680.562V109.339H678.531L674.491 102.804V109.339H672.611ZM682.701 99.3174H686.399C687.233 99.3174 687.869 99.3812 688.307 99.5088C688.895 99.682 689.398 99.9896 689.817 100.432C690.237 100.874 690.556 101.416 690.774 102.059C690.993 102.697 691.103 103.485 691.103 104.424C691.103 105.249 691 105.96 690.795 106.557C690.544 107.286 690.187 107.876 689.722 108.327C689.371 108.669 688.897 108.936 688.3 109.127C687.853 109.268 687.256 109.339 686.509 109.339H682.701V99.3174ZM684.725 101.013V107.65H686.235C686.8 107.65 687.208 107.618 687.459 107.555C687.787 107.473 688.058 107.334 688.272 107.138C688.491 106.942 688.669 106.62 688.806 106.174C688.942 105.723 689.011 105.11 689.011 104.335C689.011 103.56 688.942 102.965 688.806 102.551C688.669 102.136 688.478 101.812 688.231 101.58C687.985 101.348 687.673 101.19 687.295 101.108C687.012 101.045 686.459 101.013 685.634 101.013H684.725Z" fill="white"/>
<path d="M636.019 109.339H631.019V114.339H636.019V109.339ZM636.019 99.3174V94.3174H631.019V99.3174H636.019ZM643.449 99.3174H648.449V94.3174H643.449V99.3174ZM643.449 101.013V106.013H648.449V101.013H643.449ZM638.042 101.013V96.0127H633.042V101.013H638.042ZM638.042 103.234H633.042V108.234H638.042V103.234ZM643.073 103.234H648.073V98.2344H643.073V103.234ZM643.073 104.923V109.923H648.073V104.923H643.073ZM638.042 104.923V99.9229H633.042V104.923H638.042ZM638.042 107.65H633.042V112.65H638.042V107.65ZM643.641 107.65H648.641V102.65H643.641V107.65ZM643.641 109.339V114.339H648.641V109.339H643.641ZM641.019 109.339V99.3174H631.019V109.339H641.019ZM636.019 104.317H643.449V94.3174H636.019V104.317ZM638.449 99.3174V101.013H648.449V99.3174H638.449ZM643.449 96.0127H638.042V106.013H643.449V96.0127ZM633.042 101.013V103.234H643.042V101.013H633.042ZM638.042 108.234H643.073V98.2344H638.042V108.234ZM638.073 103.234V104.923H648.073V103.234H638.073ZM643.073 99.9229H638.042V109.923H643.073V99.9229ZM633.042 104.923V107.65H643.042V104.923H633.042ZM638.042 112.65H643.641V102.65H638.042V112.65ZM638.641 107.65V109.339H648.641V107.65H638.641ZM643.641 104.339H636.019V114.339H643.641V104.339ZM644.338 109.339L640.155 106.6L635.087 114.339H644.338V109.339ZM647.763 104.109L651.946 106.849L653.73 104.125L651.959 101.391L647.763 104.109ZM644.659 99.3174V94.3174H635.464L640.462 102.035L644.659 99.3174ZM647.024 99.3174L651.266 96.6698L649.798 94.3174H647.024V99.3174ZM649.034 102.537L644.793 105.185L649.078 112.05L653.3 105.145L649.034 102.537ZM651.003 99.3174V94.3174H648.2L646.737 96.709L651.003 99.3174ZM653.348 99.3174L657.558 102.014L662.487 94.3174H653.348V99.3174ZM650.23 104.185L646.02 101.488L644.261 104.235L646.066 106.952L650.23 104.185ZM653.655 109.339V114.339H662.981L657.82 106.572L653.655 109.339ZM651.215 109.339L647.005 112.037L648.481 114.339H651.215V109.339ZM648.993 105.873L653.203 103.175L649 96.6181L644.788 103.169L648.993 105.873ZM646.765 109.339V114.339H649.494L650.97 112.043L646.765 109.339ZM648.521 112.078L651.946 106.849L643.58 101.37L640.155 106.6L648.521 112.078ZM651.959 101.391L648.856 96.5994L640.462 102.035L643.566 106.827L651.959 101.391ZM644.659 104.317H647.024V94.3174H644.659V104.317ZM642.783 101.965L644.793 105.185L653.276 99.8895L651.266 96.6698L642.783 101.965ZM653.3 105.145L655.269 101.926L646.737 96.709L644.768 99.9288L653.3 105.145ZM651.003 104.317H653.348V94.3174H651.003V104.317ZM649.137 96.6208L646.02 101.488L654.441 106.881L657.558 102.014L649.137 96.6208ZM646.066 106.952L649.491 112.106L657.82 106.572L654.395 101.417L646.066 106.952ZM653.655 104.339H651.215V114.339H653.655V104.339ZM655.424 106.641L653.203 103.175L644.784 108.571L647.005 112.037L655.424 106.641ZM644.788 103.169L642.559 106.635L650.97 112.043L653.199 108.577L644.788 103.169ZM646.765 104.339H644.338V114.339H646.765V104.339ZM656.95 109.339H651.95V114.339H656.95V109.339ZM656.95 101.013H661.95V96.0127H656.95V101.013ZM653.977 101.013H648.977V106.013H653.977V101.013ZM653.977 99.3174V94.3174H648.977V99.3174H653.977ZM661.94 99.3174H666.94V94.3174H661.94V99.3174ZM661.94 101.013V106.013H666.94V101.013H661.94ZM658.974 101.013V96.0127H653.974V101.013H658.974ZM658.974 109.339V114.339H663.974V109.339H658.974ZM661.95 109.339V101.013H651.95V109.339H661.95ZM656.95 96.0127H653.977V106.013H656.95V96.0127ZM658.977 101.013V99.3174H648.977V101.013H658.977ZM653.977 104.317H661.94V94.3174H653.977V104.317ZM656.94 99.3174V101.013H666.94V99.3174H656.94ZM661.94 96.0127H658.974V106.013H661.94V96.0127ZM653.974 101.013V109.339H663.974V101.013H653.974ZM658.974 104.339H656.95V114.339H658.974V104.339ZM663.253 109.339H658.253V114.339H663.253V109.339ZM663.253 99.3174V94.3174H658.253V99.3174H663.253ZM670.684 99.3174H675.684V94.3174H670.684V99.3174ZM670.684 101.013V106.013H675.684V101.013H670.684ZM665.276 101.013V96.0127H660.276V101.013H665.276ZM665.276 103.234H660.276V108.234H665.276V103.234ZM670.308 103.234H675.308V98.2344H670.308V103.234ZM670.308 104.923V109.923H675.308V104.923H670.308ZM665.276 104.923V99.9229H660.276V104.923H665.276ZM665.276 107.65H660.276V112.65H665.276V107.65ZM670.875 107.65H675.875V102.65H670.875V107.65ZM670.875 109.339V114.339H675.875V109.339H670.875ZM668.253 109.339V99.3174H658.253V109.339H668.253ZM663.253 104.317H670.684V94.3174H663.253V104.317ZM665.684 99.3174V101.013H675.684V99.3174H665.684ZM670.684 96.0127H665.276V106.013H670.684V96.0127ZM660.276 101.013V103.234H670.276V101.013H660.276ZM665.276 108.234H670.308V98.2344H665.276V108.234ZM665.308 103.234V104.923H675.308V103.234H665.308ZM670.308 99.9229H665.276V109.923H670.308V99.9229ZM660.276 104.923V107.65H670.276V104.923H660.276ZM665.276 112.65H670.875V102.65H665.276V112.65ZM665.875 107.65V109.339H675.875V107.65H665.875ZM670.875 104.339H663.253V114.339H670.875V104.339ZM672.611 109.339H667.611V114.339H672.611V109.339ZM672.611 99.3174V94.3174H667.611V99.3174H672.611ZM674.58 99.3174L678.843 96.7047L677.38 94.3174H674.58V99.3174ZM678.682 106.01L674.419 108.622L683.682 123.737V106.01H678.682ZM678.682 99.3174V94.3174H673.682V99.3174H678.682ZM680.562 99.3174H685.562V94.3174H680.562V99.3174ZM680.562 109.339V114.339H685.562V109.339H680.562ZM678.531 109.339L674.278 111.968L675.744 114.339H678.531V109.339ZM674.491 102.804L678.744 100.175L669.491 85.207V102.804H674.491ZM674.491 109.339V114.339H679.491V109.339H674.491ZM677.611 109.339V99.3174H667.611V109.339H677.611ZM672.611 104.317H674.58V94.3174H672.611V104.317ZM670.317 101.93L674.419 108.622L682.945 103.397L678.843 96.7047L670.317 101.93ZM683.682 106.01V99.3174H673.682V106.01H683.682ZM678.682 104.317H680.562V94.3174H678.682V104.317ZM675.562 99.3174V109.339H685.562V99.3174H675.562ZM680.562 104.339H678.531V114.339H680.562V104.339ZM682.784 106.71L678.744 100.175L670.238 105.433L674.278 111.968L682.784 106.71ZM669.491 102.804V109.339H679.491V102.804H669.491ZM674.491 104.339H672.611V114.339H674.491V104.339ZM682.701 99.3174V94.3174H677.701V99.3174H682.701ZM688.307 99.5088L689.719 94.7125L689.707 94.7088L688.307 99.5088ZM689.817 100.432L693.445 96.9908L689.817 100.432ZM690.774 102.059L686.041 103.67L686.045 103.68L690.774 102.059ZM690.795 106.557L695.523 108.182L695.524 108.181L690.795 106.557ZM689.722 108.327L686.239 104.739L686.233 104.745L689.722 108.327ZM688.3 109.127L689.808 113.894L689.817 113.891L689.826 113.888L688.3 109.127ZM682.701 109.339H677.701V114.339H682.701V109.339ZM684.725 101.013V96.0127H679.725V101.013H684.725ZM684.725 107.65H679.725V112.65H684.725V107.65ZM687.459 107.555L686.246 102.704L686.236 102.707L686.226 102.709L687.459 107.555ZM688.272 107.138L684.936 103.414L684.917 103.431L684.897 103.449L688.272 107.138ZM688.806 106.174L693.587 107.637L693.589 107.631L693.591 107.624L688.806 106.174ZM688.806 102.551L684.057 104.116L688.806 102.551ZM687.295 101.108L686.194 105.986L686.214 105.99L686.235 105.995L687.295 101.108ZM682.701 104.317H686.399V94.3174H682.701V104.317ZM686.399 104.317C686.697 104.317 686.892 104.329 687.002 104.34C687.055 104.346 687.074 104.349 687.063 104.347C687.054 104.346 686.998 104.336 686.907 104.309L689.707 94.7088C688.583 94.3812 687.384 94.3174 686.399 94.3174V104.317ZM686.894 104.305C686.785 104.273 686.654 104.219 686.519 104.136C686.383 104.053 686.273 103.96 686.19 103.872L693.445 96.9908C692.416 95.9058 691.147 95.133 689.719 94.7126L686.894 104.305ZM686.19 103.872C686.13 103.81 686.088 103.75 686.061 103.705C686.036 103.661 686.033 103.645 686.041 103.67L695.508 100.447C695.083 99.2007 694.414 98.0128 693.445 96.9908L686.19 103.872ZM686.045 103.68C686.033 103.647 686.05 103.684 686.068 103.815C686.086 103.946 686.103 104.145 686.103 104.424H696.103C696.103 103.133 695.957 101.757 695.504 100.437L686.045 103.68ZM686.103 104.424C686.103 104.856 686.046 104.99 686.066 104.932L695.524 108.181C695.954 106.929 696.103 105.641 696.103 104.424H686.103ZM686.066 104.931C686.044 104.997 686.037 104.997 686.063 104.954C686.091 104.909 686.147 104.829 686.239 104.739L693.204 111.915C694.33 110.822 695.066 109.514 695.523 108.182L686.066 104.931ZM686.233 104.745C686.569 104.418 686.834 104.346 686.773 104.366L689.826 113.888C690.96 113.525 692.173 112.92 693.21 111.909L686.233 104.745ZM686.792 104.36C686.87 104.335 686.922 104.324 686.942 104.32C686.962 104.316 686.959 104.317 686.93 104.321C686.866 104.328 686.731 104.339 686.509 104.339V114.339C687.502 114.339 688.672 114.253 689.808 113.894L686.792 104.36ZM686.509 104.339H682.701V114.339H686.509V104.339ZM687.701 109.339V99.3174H677.701V109.339H687.701ZM679.725 101.013V107.65H689.725V101.013H679.725ZM684.725 112.65H686.235V102.65H684.725V112.65ZM686.235 112.65C686.845 112.65 687.792 112.629 688.692 112.4L686.226 102.709C686.302 102.69 686.365 102.676 686.412 102.667C686.46 102.658 686.497 102.652 686.522 102.649C686.548 102.645 686.565 102.643 686.573 102.642C686.581 102.641 686.582 102.641 686.575 102.642C686.561 102.643 686.526 102.645 686.466 102.647C686.407 102.649 686.33 102.65 686.235 102.65V112.65ZM688.672 112.405C689.672 112.155 690.726 111.67 691.648 110.827L684.897 103.449C685.39 102.998 685.902 102.79 686.246 102.704L688.672 112.405ZM691.609 110.862C692.795 109.799 693.326 108.488 693.587 107.637L684.025 104.71C684.032 104.686 684.077 104.542 684.195 104.329C684.312 104.118 684.539 103.769 684.936 103.414L691.609 110.862ZM693.591 107.624C693.932 106.498 694.011 105.329 694.011 104.335H684.011C684.011 104.582 684 104.739 683.99 104.822C683.98 104.911 683.978 104.864 684.021 104.724L693.591 107.624ZM694.011 104.335C694.011 103.373 693.939 102.152 693.554 100.985L684.057 104.116C684.02 104.003 684.002 103.925 683.995 103.891C683.988 103.856 683.989 103.85 683.992 103.879C683.995 103.907 684 103.958 684.004 104.037C684.008 104.115 684.011 104.214 684.011 104.335H694.011ZM693.554 100.985C693.231 100.005 692.664 98.889 691.665 97.945L684.798 105.215C684.291 104.736 684.107 104.268 684.057 104.116L693.554 100.985ZM691.665 97.945C690.665 97.0015 689.493 96.4689 688.355 96.222L686.235 105.995C685.853 105.912 685.305 105.694 684.798 105.215L691.665 97.945ZM688.396 96.2312C687.486 96.0257 686.384 96.0127 685.634 96.0127V106.013C685.992 106.013 686.233 106.02 686.38 106.028C686.452 106.032 686.476 106.036 686.464 106.034C686.462 106.034 686.358 106.023 686.194 105.986L688.396 96.2312ZM685.634 96.0127H684.725V106.013H685.634V96.0127Z" fill="#111111"/>
<path d="M636.019 109.339V99.3174H643.449V101.013H638.042V103.234H643.073V104.923H638.042V107.65H643.641V109.339H636.019ZM644.338 109.339L647.763 104.109L644.659 99.3174H647.024L649.034 102.537L651.003 99.3174H653.348L650.23 104.185L653.655 109.339H651.215L648.993 105.873L646.765 109.339H644.338ZM656.95 109.339V101.013H653.977V99.3174H661.94V101.013H658.974V109.339H656.95ZM663.253 109.339V99.3174H670.684V101.013H665.276V103.234H670.308V104.923H665.276V107.65H670.875V109.339H663.253ZM672.611 109.339V99.3174H674.58L678.682 106.01V99.3174H680.562V109.339H678.531L674.491 102.804V109.339H672.611ZM682.701 99.3174H686.399C687.233 99.3174 687.869 99.3812 688.307 99.5088C688.895 99.682 689.398 99.9896 689.817 100.432C690.237 100.874 690.556 101.416 690.774 102.059C690.993 102.697 691.103 103.485 691.103 104.424C691.103 105.249 691 105.96 690.795 106.557C690.544 107.286 690.187 107.876 689.722 108.327C689.371 108.669 688.897 108.936 688.3 109.127C687.853 109.268 687.256 109.339 686.509 109.339H682.701V99.3174ZM684.725 101.013V107.65H686.235C686.8 107.65 687.208 107.618 687.459 107.555C687.787 107.473 688.058 107.334 688.272 107.138C688.491 106.942 688.669 106.62 688.806 106.174C688.942 105.723 689.011 105.11 689.011 104.335C689.011 103.56 688.942 102.965 688.806 102.551C688.669 102.136 688.478 101.812 688.231 101.58C687.985 101.348 687.673 101.19 687.295 101.108C687.012 101.045 686.459 101.013 685.634 101.013H684.725Z" fill="white"/>
</svg>
