<svg width="778" height="202" viewBox="0 0 778 202" fill="none" xmlns="http://www.w3.org/2000/svg">
<path d="M1.5 130.055C19 125.98 71.5 156.137 85.5 151.246C103 145.133 92.5 136.983 81.5 136.983C70.5 136.983 91.5 178.551 105 165.102C118.5 151.654 65.5 38.3612 89 7.38906C96.7346 -2.80487 116.899 -0.42908 123 11.8719C132.5 31.0257 118.263 116.67 68 85.6343C35 65.2579 71.7368 43.2515 81.5 43.2515C98.5 38.7687 140 63.6278 114 102.75C81.5 151.654 68 132.907 68 119.867C68 94.5999 164 102.75 195 102.75C226 102.75 276.1 75.6906 304.5 78.2988" stroke="white" stroke-opacity="0.3"/>
<path d="M2.5 143.911C24.5 132.5 91.469 160.619 95 136.983C96.4365 127.367 74.0323 117.678 63.5 123.942C50.0245 131.957 51.3334 179.18 69.5 184.664C83 188.739 126.5 165.102 133.5 136.983C138.641 116.33 104.403 107.768 81.5 105.324M440 104.788C408.5 108.864 321.5 58.8389 260 71.371C224 76.2613 220.5 112.818 196 108.864C145.5 100.713 121.167 124.078 118.5 129.647C98.091 154.776 36.5 200.035 36.5 136.983C36.5 126.387 52.5 106.418 63.5 104.788C66.4209 104.355 73.2197 104.44 81.5 105.324M305.5 62.8128C257.309 48.5913 235.5 77.4838 175 82.7817C156.28 84.421 152.5 101.936 143 108.864C133.5 115.791 94 123.942 74.5 123.942C55 123.942 37.88 171.215 61.69 191.184C85.5 211.153 116.5 197.704 127.5 184.664C138.5 171.623 164.5 122.312 133.5 92.5624C102.5 62.8128 82.5 90.7805 81.5 105.324M81.5 105.324C80.8333 112.752 83.9 128.017 101.5 129.647C123.5 131.685 159 106.418 151 88.8946C143 71.371 101.31 66.0729 81.5 77.4838C61.69 88.8946 55 111.079 36.5 115.791C18 120.503 2.5 117.422 0.5 117.422" stroke="white" stroke-opacity="0.3"/>
<path d="M521 105L624 105" stroke="white" stroke-opacity="0.3"/>
<path d="M692.5 104.788L773.5 44.8816" stroke="white" stroke-opacity="0.3"/>
<path d="M693 104.788L774 65.6655" stroke="white" stroke-opacity="0.3"/>
<path d="M693 104.788L777 89.3021" stroke="white" stroke-opacity="0.3"/>
<path d="M693 104.788L774 125.165" stroke="white" stroke-opacity="0.3"/>
<path d="M693 104.788L773 144.726" stroke="white" stroke-opacity="0.3"/>
<path d="M693 104.788L771 169.177" stroke="white" stroke-opacity="0.3"/>
<path d="M460.431 105.654L462.393 106.276C462.092 107.37 461.59 108.184 460.889 108.717C460.191 109.245 459.305 109.51 458.229 109.51C456.899 109.51 455.805 109.056 454.948 108.149C454.091 107.238 453.663 105.994 453.663 104.417C453.663 102.749 454.094 101.455 454.955 100.534C455.816 99.609 456.949 99.1465 458.353 99.1465C459.578 99.1465 460.574 99.5088 461.34 100.233C461.796 100.662 462.137 101.277 462.365 102.079L460.362 102.558C460.244 102.038 459.995 101.628 459.617 101.327C459.243 101.026 458.788 100.876 458.25 100.876C457.507 100.876 456.903 101.143 456.438 101.676C455.978 102.209 455.748 103.073 455.748 104.267C455.748 105.534 455.976 106.436 456.432 106.974C456.887 107.511 457.48 107.78 458.209 107.78C458.747 107.78 459.209 107.609 459.597 107.268C459.984 106.926 460.262 106.388 460.431 105.654ZM463.726 104.39C463.726 103.369 463.878 102.512 464.184 101.819C464.411 101.309 464.721 100.851 465.113 100.445C465.51 100.04 465.943 99.7389 466.412 99.543C467.036 99.2786 467.757 99.1465 468.572 99.1465C470.049 99.1465 471.229 99.6045 472.113 100.521C473.002 101.437 473.446 102.71 473.446 104.342C473.446 105.96 473.007 107.227 472.127 108.143C471.247 109.054 470.072 109.51 468.6 109.51C467.109 109.51 465.924 109.056 465.045 108.149C464.165 107.238 463.726 105.985 463.726 104.39ZM465.811 104.321C465.811 105.456 466.073 106.317 466.597 106.905C467.121 107.489 467.786 107.78 468.593 107.78C469.399 107.78 470.06 107.491 470.575 106.912C471.095 106.329 471.354 105.456 471.354 104.294C471.354 103.146 471.102 102.289 470.596 101.724C470.094 101.159 469.427 100.876 468.593 100.876C467.759 100.876 467.087 101.163 466.576 101.737C466.066 102.307 465.811 103.168 465.811 104.321ZM475.025 99.3174H478.724C479.558 99.3174 480.193 99.3812 480.631 99.5088C481.219 99.682 481.722 99.9896 482.142 100.432C482.561 100.874 482.88 101.416 483.099 102.059C483.317 102.697 483.427 103.485 483.427 104.424C483.427 105.249 483.324 105.96 483.119 106.557C482.868 107.286 482.511 107.876 482.046 108.327C481.695 108.669 481.221 108.936 480.624 109.127C480.177 109.268 479.58 109.339 478.833 109.339H475.025V99.3174ZM477.049 101.013V107.65H478.56C479.125 107.65 479.533 107.618 479.783 107.555C480.111 107.473 480.382 107.334 480.597 107.138C480.815 106.942 480.993 106.62 481.13 106.174C481.267 105.723 481.335 105.11 481.335 104.335C481.335 103.56 481.267 102.965 481.13 102.551C480.993 102.136 480.802 101.812 480.556 101.58C480.31 101.348 479.997 101.19 479.619 101.108C479.337 101.045 478.783 101.013 477.958 101.013H477.049ZM485.088 109.339V99.3174H487.111V109.339H485.088ZM489.06 109.339V99.3174H495.93V101.013H491.083V103.385H495.267V105.08H491.083V109.339H489.06ZM500.236 109.339V105.121L496.565 99.3174H498.938L501.296 103.282L503.606 99.3174H505.938L502.253 105.135V109.339H500.236Z" fill="white"/>
<path d="M279.675 131.266C280.29 131.689 280.857 131.999 281.377 132.195L280.987 133.118C280.267 132.858 279.549 132.448 278.834 131.888C278.091 132.302 277.271 132.51 276.373 132.51C275.466 132.51 274.644 132.291 273.905 131.854C273.167 131.416 272.597 130.801 272.196 130.008C271.8 129.215 271.602 128.322 271.602 127.328C271.602 126.339 271.802 125.439 272.203 124.628C272.604 123.817 273.174 123.199 273.912 122.775C274.655 122.352 275.484 122.14 276.4 122.14C277.326 122.14 278.16 122.361 278.902 122.803C279.645 123.24 280.21 123.855 280.598 124.648C280.99 125.437 281.186 126.328 281.186 127.321C281.186 128.146 281.06 128.889 280.81 129.55C280.559 130.206 280.181 130.778 279.675 131.266ZM276.756 129.57C277.521 129.785 278.153 130.104 278.649 130.527C279.429 129.816 279.818 128.748 279.818 127.321C279.818 126.51 279.679 125.801 279.401 125.195C279.128 124.589 278.725 124.12 278.191 123.787C277.663 123.45 277.068 123.281 276.407 123.281C275.418 123.281 274.598 123.621 273.946 124.3C273.295 124.974 272.969 125.984 272.969 127.328C272.969 128.632 273.29 129.632 273.933 130.329C274.58 131.026 275.405 131.375 276.407 131.375C276.881 131.375 277.328 131.286 277.747 131.108C277.332 130.84 276.895 130.648 276.435 130.534L276.756 129.57ZM287.112 132.339H285.882V124.498C285.586 124.781 285.196 125.063 284.713 125.346C284.234 125.628 283.804 125.84 283.421 125.981V124.792C284.109 124.468 284.711 124.076 285.226 123.616C285.741 123.156 286.105 122.709 286.319 122.276H287.112V132.339ZM300.634 131.156V132.339H294.01C294.001 132.043 294.049 131.758 294.153 131.484C294.322 131.033 294.591 130.589 294.96 130.151C295.334 129.714 295.871 129.208 296.573 128.634C297.662 127.741 298.398 127.034 298.781 126.515C299.164 125.991 299.355 125.496 299.355 125.031C299.355 124.544 299.18 124.133 298.829 123.801C298.483 123.464 298.029 123.295 297.469 123.295C296.876 123.295 296.402 123.473 296.047 123.828C295.691 124.184 295.511 124.676 295.507 125.305L294.242 125.175C294.329 124.231 294.655 123.514 295.22 123.021C295.785 122.525 296.544 122.276 297.496 122.276C298.458 122.276 299.219 122.543 299.779 123.076C300.34 123.609 300.62 124.27 300.62 125.059C300.62 125.46 300.538 125.854 300.374 126.241C300.21 126.629 299.937 127.036 299.554 127.465C299.175 127.893 298.544 128.481 297.66 129.229C296.922 129.848 296.448 130.27 296.238 130.493C296.029 130.712 295.855 130.933 295.719 131.156H300.634ZM301.96 127.396C301.96 126.212 302.081 125.259 302.322 124.539C302.568 123.814 302.931 123.256 303.409 122.864C303.892 122.472 304.498 122.276 305.228 122.276C305.765 122.276 306.237 122.386 306.643 122.604C307.048 122.819 307.383 123.131 307.647 123.541C307.912 123.947 308.119 124.443 308.27 125.031C308.42 125.615 308.495 126.403 308.495 127.396C308.495 128.572 308.374 129.522 308.133 130.247C307.891 130.967 307.529 131.525 307.046 131.922C306.567 132.314 305.961 132.51 305.228 132.51C304.261 132.51 303.503 132.163 302.951 131.471C302.29 130.637 301.96 129.279 301.96 127.396ZM303.225 127.396C303.225 129.042 303.416 130.138 303.799 130.685C304.186 131.227 304.662 131.498 305.228 131.498C305.793 131.498 306.267 131.225 306.649 130.678C307.037 130.131 307.23 129.037 307.23 127.396C307.23 125.747 307.037 124.651 306.649 124.108C306.267 123.566 305.788 123.295 305.214 123.295C304.649 123.295 304.198 123.534 303.86 124.013C303.437 124.623 303.225 125.751 303.225 127.396ZM316.22 131.156V132.339H309.596C309.587 132.043 309.634 131.758 309.739 131.484C309.908 131.033 310.177 130.589 310.546 130.151C310.92 129.714 311.457 129.208 312.159 128.634C313.248 127.741 313.984 127.034 314.367 126.515C314.75 125.991 314.941 125.496 314.941 125.031C314.941 124.544 314.766 124.133 314.415 123.801C314.069 123.464 313.615 123.295 313.055 123.295C312.462 123.295 311.988 123.473 311.633 123.828C311.277 124.184 311.097 124.676 311.093 125.305L309.828 125.175C309.915 124.231 310.241 123.514 310.806 123.021C311.371 122.525 312.13 122.276 313.082 122.276C314.044 122.276 314.805 122.543 315.365 123.076C315.926 123.609 316.206 124.27 316.206 125.059C316.206 125.46 316.124 125.854 315.96 126.241C315.796 126.629 315.522 127.036 315.14 127.465C314.761 127.893 314.13 128.481 313.246 129.229C312.508 129.848 312.034 130.27 311.824 130.493C311.615 130.712 311.441 130.933 311.305 131.156H316.22ZM317.546 127.396C317.546 126.212 317.667 125.259 317.908 124.539C318.154 123.814 318.517 123.256 318.995 122.864C319.478 122.472 320.084 122.276 320.813 122.276C321.351 122.276 321.823 122.386 322.229 122.604C322.634 122.819 322.969 123.131 323.233 123.541C323.498 123.947 323.705 124.443 323.855 125.031C324.006 125.615 324.081 126.403 324.081 127.396C324.081 128.572 323.96 129.522 323.719 130.247C323.477 130.967 323.115 131.525 322.632 131.922C322.153 132.314 321.547 132.51 320.813 132.51C319.847 132.51 319.089 132.163 318.537 131.471C317.876 130.637 317.546 129.279 317.546 127.396ZM318.811 127.396C318.811 129.042 319.002 130.138 319.385 130.685C319.772 131.227 320.248 131.498 320.813 131.498C321.379 131.498 321.853 131.225 322.235 130.678C322.623 130.131 322.816 129.037 322.816 127.396C322.816 125.747 322.623 124.651 322.235 124.108C321.853 123.566 321.374 123.295 320.8 123.295C320.235 123.295 319.784 123.534 319.446 124.013C319.022 124.623 318.811 125.751 318.811 127.396Z" fill="#F2F2F2"/>
<path d="M461.675 131.266C462.29 131.689 462.857 131.999 463.377 132.195L462.987 133.118C462.267 132.858 461.549 132.448 460.834 131.888C460.091 132.302 459.271 132.51 458.373 132.51C457.466 132.51 456.644 132.291 455.905 131.854C455.167 131.416 454.597 130.801 454.196 130.008C453.8 129.215 453.602 128.322 453.602 127.328C453.602 126.339 453.802 125.439 454.203 124.628C454.604 123.817 455.174 123.199 455.912 122.775C456.655 122.352 457.484 122.14 458.4 122.14C459.326 122.14 460.16 122.361 460.902 122.803C461.645 123.24 462.21 123.855 462.598 124.648C462.99 125.437 463.186 126.328 463.186 127.321C463.186 128.146 463.06 128.889 462.81 129.55C462.559 130.206 462.181 130.778 461.675 131.266ZM458.756 129.57C459.521 129.785 460.153 130.104 460.649 130.527C461.429 129.816 461.818 128.748 461.818 127.321C461.818 126.51 461.679 125.801 461.401 125.195C461.128 124.589 460.725 124.12 460.191 123.787C459.663 123.45 459.068 123.281 458.407 123.281C457.418 123.281 456.598 123.621 455.946 124.3C455.295 124.974 454.969 125.984 454.969 127.328C454.969 128.632 455.29 129.632 455.933 130.329C456.58 131.026 457.405 131.375 458.407 131.375C458.881 131.375 459.328 131.286 459.747 131.108C459.332 130.84 458.895 130.648 458.435 130.534L458.756 129.57ZM470.944 131.156V132.339H464.32C464.311 132.043 464.359 131.758 464.464 131.484C464.632 131.033 464.901 130.589 465.271 130.151C465.644 129.714 466.182 129.208 466.884 128.634C467.973 127.741 468.709 127.034 469.092 126.515C469.475 125.991 469.666 125.496 469.666 125.031C469.666 124.544 469.491 124.133 469.14 123.801C468.793 123.464 468.34 123.295 467.779 123.295C467.187 123.295 466.713 123.473 466.357 123.828C466.002 124.184 465.822 124.676 465.817 125.305L464.553 125.175C464.639 124.231 464.965 123.514 465.53 123.021C466.095 122.525 466.854 122.276 467.807 122.276C468.768 122.276 469.529 122.543 470.09 123.076C470.65 123.609 470.931 124.27 470.931 125.059C470.931 125.46 470.849 125.854 470.685 126.241C470.521 126.629 470.247 127.036 469.864 127.465C469.486 127.893 468.855 128.481 467.971 129.229C467.232 129.848 466.758 130.27 466.549 130.493C466.339 130.712 466.166 130.933 466.029 131.156H470.944ZM482.634 131.156V132.339H476.01C476.001 132.043 476.049 131.758 476.153 131.484C476.322 131.033 476.591 130.589 476.96 130.151C477.334 129.714 477.871 129.208 478.573 128.634C479.662 127.741 480.398 127.034 480.781 126.515C481.164 125.991 481.355 125.496 481.355 125.031C481.355 124.544 481.18 124.133 480.829 123.801C480.483 123.464 480.029 123.295 479.469 123.295C478.876 123.295 478.402 123.473 478.047 123.828C477.691 124.184 477.511 124.676 477.507 125.305L476.242 125.175C476.329 124.231 476.655 123.514 477.22 123.021C477.785 122.525 478.544 122.276 479.496 122.276C480.458 122.276 481.219 122.543 481.779 123.076C482.34 123.609 482.62 124.27 482.62 125.059C482.62 125.46 482.538 125.854 482.374 126.241C482.21 126.629 481.937 127.036 481.554 127.465C481.175 127.893 480.544 128.481 479.66 129.229C478.922 129.848 478.448 130.27 478.238 130.493C478.029 130.712 477.855 130.933 477.719 131.156H482.634ZM483.96 127.396C483.96 126.212 484.081 125.259 484.322 124.539C484.568 123.814 484.931 123.256 485.409 122.864C485.892 122.472 486.498 122.276 487.228 122.276C487.765 122.276 488.237 122.386 488.643 122.604C489.048 122.819 489.383 123.131 489.647 123.541C489.912 123.947 490.119 124.443 490.27 125.031C490.42 125.615 490.495 126.403 490.495 127.396C490.495 128.572 490.374 129.522 490.133 130.247C489.891 130.967 489.529 131.525 489.046 131.922C488.567 132.314 487.961 132.51 487.228 132.51C486.261 132.51 485.503 132.163 484.951 131.471C484.29 130.637 483.96 129.279 483.96 127.396ZM485.225 127.396C485.225 129.042 485.416 130.138 485.799 130.685C486.186 131.227 486.662 131.498 487.228 131.498C487.793 131.498 488.267 131.225 488.649 130.678C489.037 130.131 489.23 129.037 489.23 127.396C489.23 125.747 489.037 124.651 488.649 124.108C488.267 123.566 487.788 123.295 487.214 123.295C486.649 123.295 486.198 123.534 485.86 124.013C485.437 124.623 485.225 125.751 485.225 127.396ZM498.22 131.156V132.339H491.596C491.587 132.043 491.634 131.758 491.739 131.484C491.908 131.033 492.177 130.589 492.546 130.151C492.92 129.714 493.457 129.208 494.159 128.634C495.248 127.741 495.984 127.034 496.367 126.515C496.75 125.991 496.941 125.496 496.941 125.031C496.941 124.544 496.766 124.133 496.415 123.801C496.069 123.464 495.615 123.295 495.055 123.295C494.462 123.295 493.988 123.473 493.633 123.828C493.277 124.184 493.097 124.676 493.093 125.305L491.828 125.175C491.915 124.231 492.241 123.514 492.806 123.021C493.371 122.525 494.13 122.276 495.082 122.276C496.044 122.276 496.805 122.543 497.365 123.076C497.926 123.609 498.206 124.27 498.206 125.059C498.206 125.46 498.124 125.854 497.96 126.241C497.796 126.629 497.522 127.036 497.14 127.465C496.761 127.893 496.13 128.481 495.246 129.229C494.508 129.848 494.034 130.27 493.824 130.493C493.615 130.712 493.441 130.933 493.305 131.156H498.22ZM499.546 127.396C499.546 126.212 499.667 125.259 499.908 124.539C500.154 123.814 500.517 123.256 500.995 122.864C501.478 122.472 502.084 122.276 502.813 122.276C503.351 122.276 503.823 122.386 504.229 122.604C504.634 122.819 504.969 123.131 505.233 123.541C505.498 123.947 505.705 124.443 505.855 125.031C506.006 125.615 506.081 126.403 506.081 127.396C506.081 128.572 505.96 129.522 505.719 130.247C505.477 130.967 505.115 131.525 504.632 131.922C504.153 132.314 503.547 132.51 502.813 132.51C501.847 132.51 501.089 132.163 500.537 131.471C499.876 130.637 499.546 129.279 499.546 127.396ZM500.811 127.396C500.811 129.042 501.002 130.138 501.385 130.685C501.772 131.227 502.248 131.498 502.813 131.498C503.379 131.498 503.853 131.225 504.235 130.678C504.623 130.131 504.816 129.037 504.816 127.396C504.816 125.747 504.623 124.651 504.235 124.108C503.853 123.566 503.374 123.295 502.8 123.295C502.235 123.295 501.784 123.534 501.446 124.013C501.022 124.623 500.811 125.751 500.811 127.396Z" fill="#F2F2F2"/>
<path d="M97.6748 131.266C98.29 131.689 98.8574 131.999 99.377 132.195L98.9873 133.118C98.2673 132.858 97.5495 132.448 96.834 131.888C96.0911 132.302 95.2708 132.51 94.373 132.51C93.4661 132.51 92.6436 132.291 91.9053 131.854C91.167 131.416 90.5973 130.801 90.1963 130.008C89.7998 129.215 89.6016 128.322 89.6016 127.328C89.6016 126.339 89.8021 125.439 90.2031 124.628C90.6042 123.817 91.1738 123.199 91.9121 122.775C92.6549 122.352 93.4844 122.14 94.4004 122.14C95.3255 122.14 96.1595 122.361 96.9023 122.803C97.6452 123.24 98.2103 123.855 98.5977 124.648C98.9896 125.437 99.1855 126.328 99.1855 127.321C99.1855 128.146 99.0602 128.889 98.8096 129.55C98.5589 130.206 98.1807 130.778 97.6748 131.266ZM94.7559 129.57C95.5215 129.785 96.1527 130.104 96.6494 130.527C97.4287 129.816 97.8184 128.748 97.8184 127.321C97.8184 126.51 97.6794 125.801 97.4014 125.195C97.1279 124.589 96.7246 124.12 96.1914 123.787C95.6628 123.45 95.068 123.281 94.4072 123.281C93.4183 123.281 92.598 123.621 91.9463 124.3C91.2946 124.974 90.9688 125.984 90.9688 127.328C90.9688 128.632 91.29 129.632 91.9326 130.329C92.5798 131.026 93.4046 131.375 94.4072 131.375C94.8812 131.375 95.3278 131.286 95.7471 131.108C95.3324 130.84 94.8949 130.648 94.4346 130.534L94.7559 129.57ZM104.422 132.339V129.939H100.074V128.812L104.647 122.317H105.652V128.812H107.006V129.939H105.652V132.339H104.422ZM104.422 128.812V124.293L101.284 128.812H104.422ZM118.634 131.156V132.339H112.01C112.001 132.043 112.049 131.758 112.153 131.484C112.322 131.033 112.591 130.589 112.96 130.151C113.334 129.714 113.871 129.208 114.573 128.634C115.662 127.741 116.398 127.034 116.781 126.515C117.164 125.991 117.355 125.496 117.355 125.031C117.355 124.544 117.18 124.133 116.829 123.801C116.483 123.464 116.029 123.295 115.469 123.295C114.876 123.295 114.402 123.473 114.047 123.828C113.691 124.184 113.511 124.676 113.507 125.305L112.242 125.175C112.329 124.231 112.655 123.514 113.22 123.021C113.785 122.525 114.544 122.276 115.496 122.276C116.458 122.276 117.219 122.543 117.779 123.076C118.34 123.609 118.62 124.27 118.62 125.059C118.62 125.46 118.538 125.854 118.374 126.241C118.21 126.629 117.937 127.036 117.554 127.465C117.175 127.893 116.544 128.481 115.66 129.229C114.922 129.848 114.448 130.27 114.238 130.493C114.029 130.712 113.855 130.933 113.719 131.156H118.634ZM119.96 127.396C119.96 126.212 120.081 125.259 120.322 124.539C120.568 123.814 120.931 123.256 121.409 122.864C121.892 122.472 122.498 122.276 123.228 122.276C123.765 122.276 124.237 122.386 124.643 122.604C125.048 122.819 125.383 123.131 125.647 123.541C125.912 123.947 126.119 124.443 126.27 125.031C126.42 125.615 126.495 126.403 126.495 127.396C126.495 128.572 126.374 129.522 126.133 130.247C125.891 130.967 125.529 131.525 125.046 131.922C124.567 132.314 123.961 132.51 123.228 132.51C122.261 132.51 121.503 132.163 120.951 131.471C120.29 130.637 119.96 129.279 119.96 127.396ZM121.225 127.396C121.225 129.042 121.416 130.138 121.799 130.685C122.186 131.227 122.662 131.498 123.228 131.498C123.793 131.498 124.267 131.225 124.649 130.678C125.037 130.131 125.23 129.037 125.23 127.396C125.23 125.747 125.037 124.651 124.649 124.108C124.267 123.566 123.788 123.295 123.214 123.295C122.649 123.295 122.198 123.534 121.86 124.013C121.437 124.623 121.225 125.751 121.225 127.396ZM132.388 132.339H131.157V124.498C130.861 124.781 130.471 125.063 129.988 125.346C129.51 125.628 129.079 125.84 128.696 125.981V124.792C129.384 124.468 129.986 124.076 130.501 123.616C131.016 123.156 131.381 122.709 131.595 122.276H132.388V132.339ZM135.73 130.021L136.913 129.912C137.013 130.468 137.205 130.871 137.487 131.122C137.77 131.373 138.132 131.498 138.574 131.498C138.952 131.498 139.283 131.411 139.565 131.238C139.853 131.065 140.087 130.835 140.27 130.548C140.452 130.256 140.604 129.864 140.728 129.372C140.851 128.88 140.912 128.379 140.912 127.868C140.912 127.813 140.91 127.731 140.905 127.622C140.659 128.014 140.322 128.333 139.894 128.579C139.47 128.821 139.009 128.941 138.513 128.941C137.683 128.941 136.981 128.641 136.407 128.039C135.833 127.438 135.546 126.645 135.546 125.66C135.546 124.644 135.844 123.826 136.441 123.206C137.043 122.586 137.795 122.276 138.697 122.276C139.349 122.276 139.944 122.452 140.481 122.803C141.024 123.154 141.434 123.655 141.712 124.307C141.994 124.954 142.136 125.893 142.136 127.123C142.136 128.404 141.997 129.424 141.719 130.186C141.441 130.942 141.026 131.519 140.475 131.915C139.928 132.312 139.285 132.51 138.547 132.51C137.763 132.51 137.123 132.293 136.626 131.86C136.129 131.423 135.831 130.81 135.73 130.021ZM140.769 125.599C140.769 124.892 140.579 124.332 140.201 123.917C139.827 123.502 139.376 123.295 138.848 123.295C138.301 123.295 137.825 123.518 137.419 123.965C137.013 124.411 136.811 124.99 136.811 125.701C136.811 126.339 137.002 126.859 137.385 127.26C137.772 127.656 138.248 127.854 138.813 127.854C139.383 127.854 139.85 127.656 140.215 127.26C140.584 126.859 140.769 126.305 140.769 125.599Z" fill="#F2F2F2"/>
<path d="M274.575 109.339L270.993 99.3174H273.188L275.724 106.734L278.178 99.3174H280.324L276.735 109.339H274.575ZM289.354 109.339H287.153L286.278 107.062H282.272L281.445 109.339H279.299L283.202 99.3174H285.342L289.354 109.339ZM285.629 105.374L284.248 101.655L282.895 105.374H285.629ZM290.489 109.339V99.3994H292.513V107.65H297.544V109.339H290.489ZM298.932 109.339V99.3174H300.955V109.339H298.932ZM302.883 99.3174H306.581C307.415 99.3174 308.051 99.3812 308.488 99.5088C309.076 99.682 309.58 99.9896 309.999 100.432C310.418 100.874 310.737 101.416 310.956 102.059C311.175 102.697 311.284 103.485 311.284 104.424C311.284 105.249 311.182 105.96 310.977 106.557C310.726 107.286 310.368 107.876 309.903 108.327C309.552 108.669 309.078 108.936 308.481 109.127C308.035 109.268 307.438 109.339 306.69 109.339H302.883V99.3174ZM304.906 101.013V107.65H306.417C306.982 107.65 307.39 107.618 307.641 107.555C307.969 107.473 308.24 107.334 308.454 107.138C308.673 106.942 308.851 106.62 308.987 106.174C309.124 105.723 309.192 105.11 309.192 104.335C309.192 103.56 309.124 102.965 308.987 102.551C308.851 102.136 308.659 101.812 308.413 101.58C308.167 101.348 307.855 101.19 307.477 101.108C307.194 101.045 306.64 101.013 305.815 101.013H304.906ZM322.044 109.339H319.843L318.968 107.062H314.962L314.135 109.339H311.988L315.892 99.3174H318.031L322.044 109.339ZM318.318 105.374L316.938 101.655L315.584 105.374H318.318ZM324.341 109.339V101.013H321.367V99.3174H329.331V101.013H326.364V109.339H324.341ZM330.644 109.339V99.3174H338.074V101.013H332.667V103.234H337.698V104.923H332.667V107.65H338.266V109.339H330.644Z" fill="white"/>
<path d="M90.1641 110.339V98.8857H98.6562V100.823H92.4766V103.362H98.2266V105.292H92.4766V108.409H98.875V110.339H90.1641ZM99.6719 110.339L103.586 104.362L100.039 98.8857H102.742L105.039 102.565L107.289 98.8857H109.969L106.406 104.448L110.32 110.339H107.531L104.992 106.378L102.445 110.339H99.6719ZM111.508 110.339V98.8857H115.219C116.625 98.8857 117.542 98.943 117.969 99.0576C118.625 99.2295 119.174 99.6045 119.617 100.183C120.06 100.756 120.281 101.498 120.281 102.409C120.281 103.112 120.154 103.703 119.898 104.183C119.643 104.662 119.318 105.039 118.922 105.315C118.531 105.586 118.133 105.766 117.727 105.854C117.174 105.964 116.375 106.019 115.328 106.019H113.82V110.339H111.508ZM113.82 100.823V104.073H115.086C115.997 104.073 116.607 104.013 116.914 103.894C117.221 103.774 117.461 103.586 117.633 103.331C117.81 103.076 117.898 102.779 117.898 102.44C117.898 102.024 117.776 101.68 117.531 101.409C117.286 101.138 116.977 100.969 116.602 100.901C116.326 100.849 115.771 100.823 114.938 100.823H113.82ZM122.242 110.339V98.9795H124.555V108.409H130.305V110.339H122.242ZM131.492 104.683C131.492 103.516 131.667 102.537 132.016 101.745C132.276 101.162 132.63 100.638 133.078 100.175C133.531 99.7113 134.026 99.3675 134.562 99.1436C135.276 98.8415 136.099 98.6904 137.031 98.6904C138.719 98.6904 140.068 99.2139 141.078 100.261C142.094 101.308 142.602 102.763 142.602 104.628C142.602 106.477 142.099 107.925 141.094 108.972C140.089 110.013 138.745 110.534 137.062 110.534C135.359 110.534 134.005 110.016 133 108.979C131.995 107.938 131.492 106.506 131.492 104.683ZM133.875 104.604C133.875 105.901 134.174 106.886 134.773 107.558C135.372 108.224 136.133 108.558 137.055 108.558C137.977 108.558 138.732 108.227 139.32 107.565C139.914 106.899 140.211 105.901 140.211 104.573C140.211 103.261 139.922 102.282 139.344 101.636C138.771 100.99 138.008 100.667 137.055 100.667C136.102 100.667 135.333 100.995 134.75 101.651C134.167 102.302 133.875 103.287 133.875 104.604ZM144.422 110.339V98.8857H149.289C150.513 98.8857 151.401 98.9899 151.953 99.1982C152.51 99.4014 152.956 99.766 153.289 100.292C153.622 100.818 153.789 101.42 153.789 102.097C153.789 102.956 153.536 103.667 153.031 104.229C152.526 104.787 151.771 105.138 150.766 105.284C151.266 105.576 151.677 105.896 152 106.245C152.328 106.594 152.768 107.214 153.32 108.104L154.719 110.339H151.953L150.281 107.847C149.688 106.956 149.281 106.396 149.062 106.167C148.844 105.933 148.612 105.774 148.367 105.69C148.122 105.602 147.734 105.558 147.203 105.558H146.734V110.339H144.422ZM146.734 103.729H148.445C149.555 103.729 150.247 103.683 150.523 103.589C150.799 103.495 151.016 103.334 151.172 103.104C151.328 102.875 151.406 102.589 151.406 102.245C151.406 101.86 151.302 101.55 151.094 101.315C150.891 101.076 150.602 100.925 150.227 100.862C150.039 100.836 149.477 100.823 148.539 100.823H146.734V103.729ZM155.977 110.339V98.8857H164.469V100.823H158.289V103.362H164.039V105.292H158.289V108.409H164.688V110.339H155.977Z" fill="white"/>
<path d="M90.1641 110.339H85.1641V115.339H90.1641V110.339ZM90.1641 98.8857V93.8857H85.1641V98.8857H90.1641ZM98.6562 98.8857H103.656V93.8857H98.6562V98.8857ZM98.6562 100.823V105.823H103.656V100.823H98.6562ZM92.4766 100.823V95.8232H87.4766V100.823H92.4766ZM92.4766 103.362H87.4766V108.362H92.4766V103.362ZM98.2266 103.362H103.227V98.3623H98.2266V103.362ZM98.2266 105.292V110.292H103.227V105.292H98.2266ZM92.4766 105.292V100.292H87.4766V105.292H92.4766ZM92.4766 108.409H87.4766V113.409H92.4766V108.409ZM98.875 108.409H103.875V103.409H98.875V108.409ZM98.875 110.339V115.339H103.875V110.339H98.875ZM95.1641 110.339V98.8857H85.1641V110.339H95.1641ZM90.1641 103.886H98.6562V93.8857H90.1641V103.886ZM93.6562 98.8857V100.823H103.656V98.8857H93.6562ZM98.6562 95.8232H92.4766V105.823H98.6562V95.8232ZM87.4766 100.823V103.362H97.4766V100.823H87.4766ZM92.4766 108.362H98.2266V98.3623H92.4766V108.362ZM93.2266 103.362V105.292H103.227V103.362H93.2266ZM98.2266 100.292H92.4766V110.292H98.2266V100.292ZM87.4766 105.292V108.409H97.4766V105.292H87.4766ZM92.4766 113.409H98.875V103.409H92.4766V113.409ZM93.875 108.409V110.339H103.875V108.409H93.875ZM98.875 105.339H90.1641V115.339H98.875V105.339ZM99.6719 110.339L95.4891 107.6L90.4205 115.339H99.6719V110.339ZM103.586 104.362L107.769 107.102L109.553 104.378L107.783 101.644L103.586 104.362ZM100.039 98.8857V93.8857H90.8438L95.8423 101.604L100.039 98.8857ZM102.742 98.8857L106.984 96.2382L105.515 93.8857H102.742V98.8857ZM105.039 102.565L100.798 105.213L105.083 112.078L109.305 105.174L105.039 102.565ZM107.289 98.8857V93.8857H104.486L103.023 96.2774L107.289 98.8857ZM109.969 98.8857L114.179 101.582L119.109 93.8857H109.969V98.8857ZM106.406 104.448L102.196 101.752L100.437 104.499L102.242 107.215L106.406 104.448ZM110.32 110.339V115.339H119.646L114.485 107.572L110.32 110.339ZM107.531 110.339L103.322 113.037L104.797 115.339H107.531V110.339ZM104.992 106.378L109.202 103.68L104.999 97.123L100.787 103.674L104.992 106.378ZM102.445 110.339V115.339H105.175L106.651 113.043L102.445 110.339ZM103.855 113.078L107.769 107.102L99.4031 101.623L95.4891 107.6L103.855 113.078ZM107.783 101.644L104.236 96.1677L95.8423 101.604L99.3892 107.08L107.783 101.644ZM100.039 103.886H102.742V93.8857H100.039V103.886ZM98.5007 101.533L100.798 105.213L109.281 99.9179L106.984 96.2382L98.5007 101.533ZM109.305 105.174L111.555 101.494L103.023 96.2774L100.773 99.9571L109.305 105.174ZM107.289 103.886H109.969V93.8857H107.289V103.886ZM105.758 96.1891L102.196 101.752L110.617 107.145L114.179 101.582L105.758 96.1891ZM102.242 107.215L106.156 113.106L114.485 107.572L110.571 101.681L102.242 107.215ZM110.32 105.339H107.531V115.339H110.32V105.339ZM111.741 107.641L109.202 103.68L100.783 109.076L103.322 113.037L111.741 107.641ZM100.787 103.674L98.2397 107.635L106.651 113.043L109.198 109.082L100.787 103.674ZM102.445 105.339H99.6719V115.339H102.445V105.339ZM111.508 110.339H106.508V115.339H111.508V110.339ZM111.508 98.8857V93.8857H106.508V98.8857H111.508ZM117.969 99.0576L116.673 103.887L116.688 103.891L116.702 103.894L117.969 99.0576ZM119.617 100.183L115.647 103.223L115.654 103.231L115.661 103.24L119.617 100.183ZM118.922 105.315L121.771 109.424L121.782 109.417L118.922 105.315ZM117.727 105.854L118.698 110.759L118.745 110.75L118.791 110.74L117.727 105.854ZM113.82 106.019V101.019H108.82V106.019H113.82ZM113.82 110.339V115.339H118.82V110.339H113.82ZM113.82 100.823V95.8232H108.82V100.823H113.82ZM113.82 104.073H108.82V109.073H113.82V104.073ZM117.633 103.331L113.525 100.481L113.505 100.509L113.486 100.538L117.633 103.331ZM116.602 100.901L115.675 105.815L115.694 105.818L115.713 105.822L116.602 100.901ZM116.508 110.339V98.8857H106.508V110.339H116.508ZM111.508 103.886H115.219V93.8857H111.508V103.886ZM115.219 103.886C115.866 103.886 116.334 103.899 116.649 103.919C116.805 103.929 116.891 103.938 116.922 103.942C116.971 103.948 116.866 103.938 116.673 103.887L119.264 94.2284C118.085 93.9121 116.481 93.8857 115.219 93.8857V103.886ZM116.702 103.894C116.487 103.838 116.262 103.739 116.055 103.598C115.85 103.458 115.719 103.316 115.647 103.223L123.587 97.1427C122.521 95.7508 121.049 94.6957 119.236 94.2208L116.702 103.894ZM115.661 103.24C115.48 103.006 115.377 102.775 115.324 102.598C115.274 102.432 115.281 102.354 115.281 102.409H125.281C125.281 100.682 124.852 98.7792 123.574 97.1254L115.661 103.24ZM115.281 102.409C115.281 102.527 115.258 102.259 115.485 101.832L124.312 106.533C125.049 105.148 125.281 103.697 125.281 102.409H115.281ZM115.485 101.832C115.555 101.701 115.731 101.445 116.062 101.214L121.782 109.417C122.904 108.634 123.731 107.622 124.312 106.533L115.485 101.832ZM116.073 101.206C116.144 101.157 116.343 101.039 116.662 100.969L118.791 110.74C119.922 110.493 120.919 110.015 121.771 109.424L116.073 101.206ZM116.755 100.95C116.761 100.949 116.733 100.954 116.664 100.963C116.595 100.971 116.499 100.98 116.372 100.989C116.114 101.007 115.77 101.019 115.328 101.019V111.019C116.474 111.019 117.662 110.965 118.698 110.759L116.755 100.95ZM115.328 101.019H113.82V111.019H115.328V101.019ZM108.82 106.019V110.339H118.82V106.019H108.82ZM113.82 105.339H111.508V115.339H113.82V105.339ZM108.82 100.823V104.073H118.82V100.823H108.82ZM113.82 109.073H115.086V99.0732H113.82V109.073ZM115.086 109.073C115.634 109.073 116.191 109.056 116.716 109.004C117.157 108.961 117.931 108.864 118.73 108.552L115.098 99.235C115.25 99.1756 115.377 99.1372 115.464 99.1132C115.553 99.0888 115.622 99.0739 115.665 99.0655C115.709 99.057 115.737 99.0528 115.746 99.0515C115.756 99.0501 115.754 99.0507 115.737 99.0523C115.702 99.0558 115.631 99.0614 115.516 99.0659C115.403 99.0703 115.261 99.0732 115.086 99.0732V109.073ZM118.73 108.552C119.914 108.09 120.998 107.286 121.78 106.124L113.486 100.538C113.924 99.8867 114.528 99.4571 115.098 99.235L118.73 108.552ZM121.741 106.181C122.551 105.014 122.898 103.702 122.898 102.44H112.898C112.898 101.856 113.069 101.138 113.525 100.481L121.741 106.181ZM122.898 102.44C122.898 100.972 122.434 99.3766 121.241 98.0565L113.822 104.762C113.504 104.41 113.256 103.995 113.096 103.547C112.941 103.11 112.898 102.724 112.898 102.44H122.898ZM121.241 98.0565C120.22 96.9278 118.902 96.2358 117.49 95.9809L115.713 105.822C115.414 105.768 115.07 105.659 114.718 105.467C114.364 105.274 114.063 105.029 113.822 104.762L121.241 98.0565ZM117.529 95.9881C116.718 95.8351 115.695 95.8232 114.938 95.8232V105.823C115.31 105.823 115.573 105.829 115.744 105.837C115.828 105.841 115.869 105.845 115.874 105.845C115.89 105.847 115.811 105.84 115.675 105.815L117.529 95.9881ZM114.938 95.8232H113.82V105.823H114.938V95.8232ZM122.242 110.339H117.242V115.339H122.242V110.339ZM122.242 98.9795V93.9795H117.242V98.9795H122.242ZM124.555 98.9795H129.555V93.9795H124.555V98.9795ZM124.555 108.409H119.555V113.409H124.555V108.409ZM130.305 108.409H135.305V103.409H130.305V108.409ZM130.305 110.339V115.339H135.305V110.339H130.305ZM127.242 110.339V98.9795H117.242V110.339H127.242ZM122.242 103.979H124.555V93.9795H122.242V103.979ZM119.555 98.9795V108.409H129.555V98.9795H119.555ZM124.555 113.409H130.305V103.409H124.555V113.409ZM125.305 108.409V110.339H135.305V108.409H125.305ZM130.305 105.339H122.242V115.339H130.305V105.339ZM132.016 101.745L127.45 99.7069L127.445 99.7176L127.44 99.7284L132.016 101.745ZM133.078 100.175L129.503 96.6797L129.493 96.69L129.483 96.7004L133.078 100.175ZM134.562 99.1436L136.489 103.758L136.5 103.753L136.512 103.748L134.562 99.1436ZM141.078 100.261L137.48 103.733L137.489 103.742L141.078 100.261ZM141.094 108.972L144.692 112.444L144.7 112.435L141.094 108.972ZM133 108.979L129.402 112.452L129.411 112.461L133 108.979ZM134.773 107.558L131.041 110.885L131.048 110.892L131.054 110.899L134.773 107.558ZM139.32 107.565L135.586 104.24L135.585 104.242L139.32 107.565ZM139.344 101.636L135.603 104.954L135.611 104.962L135.618 104.971L139.344 101.636ZM134.75 101.651L138.474 104.988L138.48 104.981L138.487 104.973L134.75 101.651ZM136.492 104.683C136.492 103.982 136.601 103.738 136.591 103.762L127.44 99.7284C126.732 101.336 126.492 103.05 126.492 104.683H136.492ZM136.581 103.783C136.602 103.736 136.627 103.698 136.674 103.649L129.483 96.7004C128.634 97.5787 127.95 98.5871 127.45 99.7069L136.581 103.783ZM136.654 103.67C136.676 103.647 136.673 103.654 136.642 103.676C136.61 103.698 136.558 103.729 136.489 103.758L132.636 94.5295C131.413 95.0402 130.371 95.7916 129.503 96.6797L136.654 103.67ZM136.512 103.748C136.497 103.754 136.635 103.69 137.031 103.69V93.6904C135.562 93.6904 134.055 93.9287 132.613 94.5392L136.512 103.748ZM137.031 103.69C137.357 103.69 137.489 103.74 137.5 103.744C137.507 103.747 137.499 103.745 137.487 103.736C137.474 103.728 137.471 103.724 137.481 103.733L144.676 96.7884C142.571 94.6077 139.84 93.6904 137.031 93.6904V103.69ZM137.489 103.742C137.462 103.714 137.471 103.703 137.5 103.785C137.535 103.885 137.602 104.143 137.602 104.628H147.602C147.602 101.841 146.82 98.9988 144.667 96.7792L137.489 103.742ZM137.602 104.628C137.602 105.106 137.536 105.36 137.501 105.461C137.473 105.543 137.463 105.534 137.487 105.509L144.7 112.435C146.826 110.221 147.602 107.399 147.602 104.628H137.602ZM137.496 105.5C137.488 105.507 137.493 105.502 137.507 105.492C137.522 105.482 137.53 105.479 137.525 105.481C137.517 105.485 137.387 105.534 137.062 105.534V115.534C139.863 115.534 142.59 114.621 144.692 112.444L137.496 105.5ZM137.062 105.534C136.717 105.534 136.573 105.482 136.557 105.476C136.547 105.472 136.555 105.474 136.57 105.485C136.586 105.495 136.593 105.502 136.589 105.498L129.411 112.461C131.526 114.642 134.269 115.534 137.062 115.534V105.534ZM136.598 105.507C136.619 105.53 136.612 105.539 136.587 105.468C136.556 105.379 136.492 105.14 136.492 104.683H126.492C126.492 107.449 127.28 110.252 129.402 112.452L136.598 105.507ZM128.875 104.604C128.875 106.594 129.329 108.964 131.041 110.885L138.506 104.23C138.752 104.507 138.852 104.759 138.883 104.86C138.909 104.944 138.875 104.882 138.875 104.604H128.875ZM131.054 110.899C132.632 112.655 134.76 113.558 137.055 113.558V103.558C137.208 103.558 137.481 103.588 137.8 103.728C138.123 103.87 138.355 104.062 138.493 104.216L131.054 110.899ZM137.055 113.558C139.337 113.558 141.475 112.666 143.056 110.889L135.585 104.242C135.734 104.074 135.976 103.874 136.307 103.73C136.632 103.587 136.907 103.558 137.055 103.558V113.558ZM143.054 110.891C144.782 108.951 145.211 106.545 145.211 104.573H135.211C135.211 104.881 135.175 104.962 135.196 104.891C135.222 104.802 135.321 104.538 135.586 104.24L143.054 110.891ZM145.211 104.573C145.211 102.643 144.801 100.236 143.069 98.3009L135.618 104.971C135.332 104.651 135.227 104.366 135.199 104.27C135.175 104.191 135.211 104.267 135.211 104.573H145.211ZM143.084 98.3177C141.457 96.4836 139.271 95.667 137.055 95.667V105.667C136.962 105.667 136.714 105.65 136.393 105.514C136.06 105.373 135.79 105.164 135.603 104.954L143.084 98.3177ZM137.055 95.667C134.811 95.667 132.633 96.5073 131.013 98.3295L138.487 104.973C138.315 105.167 138.056 105.371 137.728 105.511C137.409 105.647 137.159 105.667 137.055 105.667V95.667ZM131.026 98.3148C129.291 100.252 128.875 102.662 128.875 104.604H138.875C138.875 104.298 138.911 104.22 138.888 104.298C138.86 104.393 138.755 104.674 138.474 104.988L131.026 98.3148ZM144.422 110.339H139.422V115.339H144.422V110.339ZM144.422 98.8857V93.8857H139.422V98.8857H144.422ZM151.953 99.1982L150.188 103.876L150.214 103.886L150.241 103.896L151.953 99.1982ZM153.031 104.229L156.736 107.588L156.743 107.579L156.751 107.571L153.031 104.229ZM150.766 105.284L150.048 100.336L135.883 102.391L148.246 109.603L150.766 105.284ZM152 106.245L148.33 109.641L148.344 109.656L148.357 109.67L152 106.245ZM153.32 108.104L149.071 110.739L149.076 110.748L149.082 110.757L153.32 108.104ZM154.719 110.339V115.339H163.747L158.957 107.686L154.719 110.339ZM151.953 110.339L147.801 113.124L149.286 115.339H151.953V110.339ZM150.281 107.847L146.121 110.62L146.125 110.626L146.129 110.632L150.281 107.847ZM149.062 106.167L145.407 109.579L145.426 109.599L145.446 109.619L149.062 106.167ZM148.367 105.69L146.667 110.392L146.711 110.408L146.756 110.424L148.367 105.69ZM146.734 105.558V100.558H141.734V105.558H146.734ZM146.734 110.339V115.339H151.734V110.339H146.734ZM146.734 103.729H141.734V108.729H146.734V103.729ZM151.094 101.315L147.28 104.549L147.318 104.594L147.357 104.637L151.094 101.315ZM150.227 100.862L151.049 95.9303L150.982 95.9192L150.914 95.9098L150.227 100.862ZM146.734 100.823V95.8232H141.734V100.823H146.734ZM149.422 110.339V98.8857H139.422V110.339H149.422ZM144.422 103.886H149.289V93.8857H144.422V103.886ZM149.289 103.886C149.772 103.886 150.096 103.907 150.291 103.93C150.385 103.941 150.423 103.949 150.416 103.948C150.412 103.947 150.328 103.929 150.188 103.876L153.718 94.5202C152.269 93.9734 150.61 93.8857 149.289 93.8857V103.886ZM150.241 103.896C150.008 103.811 149.763 103.678 149.538 103.493C149.314 103.31 149.162 103.12 149.066 102.968L157.513 97.6157C156.62 96.207 155.314 95.1015 153.665 94.5006L150.241 103.896ZM149.066 102.968C148.968 102.815 148.893 102.645 148.846 102.473C148.799 102.304 148.789 102.171 148.789 102.097H158.789C158.789 100.558 158.397 99.0119 157.513 97.6157L149.066 102.968ZM148.789 102.097C148.789 102.034 148.799 101.851 148.888 101.6C148.981 101.339 149.129 101.092 149.311 100.888L156.751 107.571C158.194 105.964 158.789 104.009 158.789 102.097H148.789ZM149.327 100.871C149.838 100.308 150.306 100.299 150.048 100.336L151.483 110.232C153.236 109.978 155.214 109.266 156.736 107.588L149.327 100.871ZM148.246 109.603C148.325 109.649 148.365 109.679 148.378 109.689C148.39 109.698 148.37 109.684 148.33 109.641L155.67 102.849C154.947 102.069 154.123 101.454 153.285 100.965L148.246 109.603ZM148.357 109.67C148.302 109.611 148.345 109.649 148.499 109.867C148.641 110.066 148.831 110.352 149.071 110.739L157.57 105.47C156.999 104.548 156.338 103.56 155.643 102.82L148.357 109.67ZM149.082 110.757L150.48 112.992L158.957 107.686L157.559 105.452L149.082 110.757ZM154.719 105.339H151.953V115.339H154.719V105.339ZM156.105 107.553L154.433 105.061L146.129 110.632L147.801 113.124L156.105 107.553ZM154.442 105.073C153.91 104.276 153.258 103.321 152.679 102.715L145.446 109.619C145.351 109.521 145.311 109.466 145.342 109.505C145.364 109.533 145.41 109.593 145.484 109.695C145.634 109.901 145.843 110.204 146.121 110.62L154.442 105.073ZM152.718 102.755C152.07 102.061 151.168 101.362 149.979 100.957L146.756 110.424C146.055 110.185 145.618 109.804 145.407 109.579L152.718 102.755ZM150.068 100.989C148.962 100.588 147.84 100.558 147.203 100.558V110.558C147.342 110.558 147.373 110.564 147.326 110.559C147.299 110.556 147.23 110.547 147.13 110.526C147.032 110.505 146.87 110.466 146.667 110.392L150.068 100.989ZM147.203 100.558H146.734V110.558H147.203V100.558ZM141.734 105.558V110.339H151.734V105.558H141.734ZM146.734 105.339H144.422V115.339H146.734V105.339ZM146.734 108.729H148.445V98.7295H146.734V108.729ZM148.445 108.729C149.055 108.729 149.63 108.717 150.134 108.683C150.483 108.659 151.313 108.601 152.131 108.323L148.916 98.8545C149.111 98.7882 149.264 98.752 149.346 98.7343C149.434 98.7153 149.495 98.7059 149.52 98.7023C149.565 98.6957 149.553 98.6994 149.459 98.7057C149.271 98.7185 148.945 98.7295 148.445 98.7295V108.729ZM152.131 108.323C153.378 107.9 154.503 107.094 155.303 105.921L147.041 100.288C147.528 99.5733 148.221 99.0904 148.916 98.8545L152.131 108.323ZM155.303 105.921C156.148 104.682 156.406 103.352 156.406 102.245H146.406C146.406 101.826 146.508 101.069 147.041 100.288L155.303 105.921ZM156.406 102.245C156.406 100.928 156.028 99.3407 154.831 97.9936L147.357 104.637C146.576 103.759 146.406 102.792 146.406 102.245H156.406ZM154.908 98.082C153.787 96.7604 152.335 96.1447 151.049 95.9303L149.405 105.794C148.868 105.705 147.994 105.391 147.28 104.549L154.908 98.082ZM150.914 95.9098C150.296 95.824 149.299 95.8232 148.539 95.8232V105.823C148.991 105.823 149.323 105.826 149.548 105.832C149.662 105.834 149.727 105.837 149.756 105.838C149.769 105.839 149.76 105.839 149.735 105.837C149.716 105.835 149.643 105.829 149.539 105.815L150.914 95.9098ZM148.539 95.8232H146.734V105.823H148.539V95.8232ZM141.734 100.823V103.729H151.734V100.823H141.734ZM155.977 110.339H150.977V115.339H155.977V110.339ZM155.977 98.8857V93.8857H150.977V98.8857H155.977ZM164.469 98.8857H169.469V93.8857H164.469V98.8857ZM164.469 100.823V105.823H169.469V100.823H164.469ZM158.289 100.823V95.8232H153.289V100.823H158.289ZM158.289 103.362H153.289V108.362H158.289V103.362ZM164.039 103.362H169.039V98.3623H164.039V103.362ZM164.039 105.292V110.292H169.039V105.292H164.039ZM158.289 105.292V100.292H153.289V105.292H158.289ZM158.289 108.409H153.289V113.409H158.289V108.409ZM164.688 108.409H169.688V103.409H164.688V108.409ZM164.688 110.339V115.339H169.688V110.339H164.688ZM160.977 110.339V98.8857H150.977V110.339H160.977ZM155.977 103.886H164.469V93.8857H155.977V103.886ZM159.469 98.8857V100.823H169.469V98.8857H159.469ZM164.469 95.8232H158.289V105.823H164.469V95.8232ZM153.289 100.823V103.362H163.289V100.823H153.289ZM158.289 108.362H164.039V98.3623H158.289V108.362ZM159.039 103.362V105.292H169.039V103.362H159.039ZM164.039 100.292H158.289V110.292H164.039V100.292ZM153.289 105.292V108.409H163.289V105.292H153.289ZM158.289 113.409H164.688V103.409H158.289V113.409ZM159.688 108.409V110.339H169.688V108.409H159.688ZM164.688 105.339H155.977V115.339H164.688V105.339Z" fill="#111111"/>
<path d="M90.1641 110.339V98.8857H98.6562V100.823H92.4766V103.362H98.2266V105.292H92.4766V108.409H98.875V110.339H90.1641ZM99.6719 110.339L103.586 104.362L100.039 98.8857H102.742L105.039 102.565L107.289 98.8857H109.969L106.406 104.448L110.32 110.339H107.531L104.992 106.378L102.445 110.339H99.6719ZM111.508 110.339V98.8857H115.219C116.625 98.8857 117.542 98.943 117.969 99.0576C118.625 99.2295 119.174 99.6045 119.617 100.183C120.06 100.756 120.281 101.498 120.281 102.409C120.281 103.112 120.154 103.703 119.898 104.183C119.643 104.662 119.318 105.039 118.922 105.315C118.531 105.586 118.133 105.766 117.727 105.854C117.174 105.964 116.375 106.019 115.328 106.019H113.82V110.339H111.508ZM113.82 100.823V104.073H115.086C115.997 104.073 116.607 104.013 116.914 103.894C117.221 103.774 117.461 103.586 117.633 103.331C117.81 103.076 117.898 102.779 117.898 102.44C117.898 102.024 117.776 101.68 117.531 101.409C117.286 101.138 116.977 100.969 116.602 100.901C116.326 100.849 115.771 100.823 114.938 100.823H113.82ZM122.242 110.339V98.9795H124.555V108.409H130.305V110.339H122.242ZM131.492 104.683C131.492 103.516 131.667 102.537 132.016 101.745C132.276 101.162 132.63 100.638 133.078 100.175C133.531 99.7113 134.026 99.3675 134.562 99.1436C135.276 98.8415 136.099 98.6904 137.031 98.6904C138.719 98.6904 140.068 99.2139 141.078 100.261C142.094 101.308 142.602 102.763 142.602 104.628C142.602 106.477 142.099 107.925 141.094 108.972C140.089 110.013 138.745 110.534 137.062 110.534C135.359 110.534 134.005 110.016 133 108.979C131.995 107.938 131.492 106.506 131.492 104.683ZM133.875 104.604C133.875 105.901 134.174 106.886 134.773 107.558C135.372 108.224 136.133 108.558 137.055 108.558C137.977 108.558 138.732 108.227 139.32 107.565C139.914 106.899 140.211 105.901 140.211 104.573C140.211 103.261 139.922 102.282 139.344 101.636C138.771 100.99 138.008 100.667 137.055 100.667C136.102 100.667 135.333 100.995 134.75 101.651C134.167 102.302 133.875 103.287 133.875 104.604ZM144.422 110.339V98.8857H149.289C150.513 98.8857 151.401 98.9899 151.953 99.1982C152.51 99.4014 152.956 99.766 153.289 100.292C153.622 100.818 153.789 101.42 153.789 102.097C153.789 102.956 153.536 103.667 153.031 104.229C152.526 104.787 151.771 105.138 150.766 105.284C151.266 105.576 151.677 105.896 152 106.245C152.328 106.594 152.768 107.214 153.32 108.104L154.719 110.339H151.953L150.281 107.847C149.688 106.956 149.281 106.396 149.062 106.167C148.844 105.933 148.612 105.774 148.367 105.69C148.122 105.602 147.734 105.558 147.203 105.558H146.734V110.339H144.422ZM146.734 103.729H148.445C149.555 103.729 150.247 103.683 150.523 103.589C150.799 103.495 151.016 103.334 151.172 103.104C151.328 102.875 151.406 102.589 151.406 102.245C151.406 101.86 151.302 101.55 151.094 101.315C150.891 101.076 150.602 100.925 150.227 100.862C150.039 100.836 149.477 100.823 148.539 100.823H146.734V103.729ZM155.977 110.339V98.8857H164.469V100.823H158.289V103.362H164.039V105.292H158.289V108.409H164.688V110.339H155.977Z" fill="white"/>
<path d="M643.675 131.266C644.29 131.689 644.857 131.999 645.377 132.195L644.987 133.118C644.267 132.858 643.549 132.448 642.834 131.888C642.091 132.302 641.271 132.51 640.373 132.51C639.466 132.51 638.644 132.291 637.905 131.854C637.167 131.416 636.597 130.801 636.196 130.008C635.8 129.215 635.602 128.322 635.602 127.328C635.602 126.339 635.802 125.439 636.203 124.628C636.604 123.817 637.174 123.199 637.912 122.775C638.655 122.352 639.484 122.14 640.4 122.14C641.326 122.14 642.16 122.361 642.902 122.803C643.645 123.24 644.21 123.855 644.598 124.648C644.99 125.437 645.186 126.328 645.186 127.321C645.186 128.146 645.06 128.889 644.81 129.55C644.559 130.206 644.181 130.778 643.675 131.266ZM640.756 129.57C641.521 129.785 642.153 130.104 642.649 130.527C643.429 129.816 643.818 128.748 643.818 127.321C643.818 126.51 643.679 125.801 643.401 125.195C643.128 124.589 642.725 124.12 642.191 123.787C641.663 123.45 641.068 123.281 640.407 123.281C639.418 123.281 638.598 123.621 637.946 124.3C637.295 124.974 636.969 125.984 636.969 127.328C636.969 128.632 637.29 129.632 637.933 130.329C638.58 131.026 639.405 131.375 640.407 131.375C640.881 131.375 641.328 131.286 641.747 131.108C641.332 130.84 640.895 130.648 640.435 130.534L640.756 129.57ZM646.484 129.693L647.715 129.529C647.856 130.227 648.095 130.73 648.433 131.04C648.774 131.345 649.189 131.498 649.677 131.498C650.256 131.498 650.743 131.298 651.14 130.896C651.541 130.495 651.741 129.999 651.741 129.406C651.741 128.841 651.557 128.376 651.188 128.012C650.818 127.643 650.349 127.458 649.779 127.458C649.547 127.458 649.257 127.504 648.911 127.595L649.048 126.515C649.13 126.524 649.196 126.528 649.246 126.528C649.77 126.528 650.242 126.392 650.661 126.118C651.08 125.845 651.29 125.423 651.29 124.854C651.29 124.402 651.137 124.029 650.832 123.732C650.527 123.436 650.132 123.288 649.649 123.288C649.171 123.288 648.772 123.438 648.453 123.739C648.134 124.04 647.929 124.491 647.838 125.093L646.607 124.874C646.758 124.049 647.1 123.411 647.633 122.96C648.166 122.504 648.829 122.276 649.622 122.276C650.169 122.276 650.673 122.395 651.133 122.632C651.593 122.864 651.944 123.183 652.186 123.589C652.432 123.994 652.555 124.425 652.555 124.881C652.555 125.314 652.438 125.708 652.206 126.063C651.974 126.419 651.63 126.701 651.174 126.911C651.766 127.048 652.227 127.333 652.555 127.766C652.883 128.194 653.047 128.732 653.047 129.379C653.047 130.254 652.728 130.997 652.09 131.607C651.452 132.214 650.645 132.517 649.67 132.517C648.79 132.517 648.059 132.255 647.476 131.73C646.897 131.206 646.566 130.527 646.484 129.693ZM664.634 131.156V132.339H658.01C658.001 132.043 658.049 131.758 658.153 131.484C658.322 131.033 658.591 130.589 658.96 130.151C659.334 129.714 659.871 129.208 660.573 128.634C661.662 127.741 662.398 127.034 662.781 126.515C663.164 125.991 663.355 125.496 663.355 125.031C663.355 124.544 663.18 124.133 662.829 123.801C662.483 123.464 662.029 123.295 661.469 123.295C660.876 123.295 660.402 123.473 660.047 123.828C659.691 124.184 659.511 124.676 659.507 125.305L658.242 125.175C658.329 124.231 658.655 123.514 659.22 123.021C659.785 122.525 660.544 122.276 661.496 122.276C662.458 122.276 663.219 122.543 663.779 123.076C664.34 123.609 664.62 124.27 664.62 125.059C664.62 125.46 664.538 125.854 664.374 126.241C664.21 126.629 663.937 127.036 663.554 127.465C663.175 127.893 662.544 128.481 661.66 129.229C660.922 129.848 660.448 130.27 660.238 130.493C660.029 130.712 659.855 130.933 659.719 131.156H664.634ZM665.96 127.396C665.96 126.212 666.081 125.259 666.322 124.539C666.568 123.814 666.931 123.256 667.409 122.864C667.892 122.472 668.498 122.276 669.228 122.276C669.765 122.276 670.237 122.386 670.643 122.604C671.048 122.819 671.383 123.131 671.647 123.541C671.912 123.947 672.119 124.443 672.27 125.031C672.42 125.615 672.495 126.403 672.495 127.396C672.495 128.572 672.374 129.522 672.133 130.247C671.891 130.967 671.529 131.525 671.046 131.922C670.567 132.314 669.961 132.51 669.228 132.51C668.261 132.51 667.503 132.163 666.951 131.471C666.29 130.637 665.96 129.279 665.96 127.396ZM667.225 127.396C667.225 129.042 667.416 130.138 667.799 130.685C668.186 131.227 668.662 131.498 669.228 131.498C669.793 131.498 670.267 131.225 670.649 130.678C671.037 130.131 671.23 129.037 671.23 127.396C671.23 125.747 671.037 124.651 670.649 124.108C670.267 123.566 669.788 123.295 669.214 123.295C668.649 123.295 668.198 123.534 667.86 124.013C667.437 124.623 667.225 125.751 667.225 127.396ZM680.22 131.156V132.339H673.596C673.587 132.043 673.634 131.758 673.739 131.484C673.908 131.033 674.177 130.589 674.546 130.151C674.92 129.714 675.457 129.208 676.159 128.634C677.248 127.741 677.984 127.034 678.367 126.515C678.75 125.991 678.941 125.496 678.941 125.031C678.941 124.544 678.766 124.133 678.415 123.801C678.069 123.464 677.615 123.295 677.055 123.295C676.462 123.295 675.988 123.473 675.633 123.828C675.277 124.184 675.097 124.676 675.093 125.305L673.828 125.175C673.915 124.231 674.241 123.514 674.806 123.021C675.371 122.525 676.13 122.276 677.082 122.276C678.044 122.276 678.805 122.543 679.365 123.076C679.926 123.609 680.206 124.27 680.206 125.059C680.206 125.46 680.124 125.854 679.96 126.241C679.796 126.629 679.522 127.036 679.14 127.465C678.761 127.893 678.13 128.481 677.246 129.229C676.508 129.848 676.034 130.27 675.824 130.493C675.615 130.712 675.441 130.933 675.305 131.156H680.22ZM681.546 127.396C681.546 126.212 681.667 125.259 681.908 124.539C682.154 123.814 682.517 123.256 682.995 122.864C683.478 122.472 684.084 122.276 684.813 122.276C685.351 122.276 685.823 122.386 686.229 122.604C686.634 122.819 686.969 123.131 687.233 123.541C687.498 123.947 687.705 124.443 687.855 125.031C688.006 125.615 688.081 126.403 688.081 127.396C688.081 128.572 687.96 129.522 687.719 130.247C687.477 130.967 687.115 131.525 686.632 131.922C686.153 132.314 685.547 132.51 684.813 132.51C683.847 132.51 683.089 132.163 682.537 131.471C681.876 130.637 681.546 129.279 681.546 127.396ZM682.811 127.396C682.811 129.042 683.002 130.138 683.385 130.685C683.772 131.227 684.248 131.498 684.813 131.498C685.379 131.498 685.853 131.225 686.235 130.678C686.623 130.131 686.816 129.037 686.816 127.396C686.816 125.747 686.623 124.651 686.235 124.108C685.853 123.566 685.374 123.295 684.8 123.295C684.235 123.295 683.784 123.534 683.446 124.013C683.022 124.623 682.811 125.751 682.811 127.396Z" fill="#F2F2F2"/>
<path d="M636.164 110.339V98.8857H644.656V100.823H638.477V103.362H644.227V105.292H638.477V108.409H644.875V110.339H636.164ZM645.672 110.339L649.586 104.362L646.039 98.8857H648.742L651.039 102.565L653.289 98.8857H655.969L652.406 104.448L656.32 110.339H653.531L650.992 106.378L648.445 110.339H645.672ZM660.086 110.339V100.823H656.688V98.8857H665.789V100.823H662.398V110.339H660.086ZM667.289 110.339V98.8857H675.781V100.823H669.602V103.362H675.352V105.292H669.602V108.409H676V110.339H667.289ZM677.984 110.339V98.8857H680.234L684.922 106.534V98.8857H687.07V110.339H684.75L680.133 102.87V110.339H677.984ZM689.516 98.8857H693.742C694.695 98.8857 695.422 98.9587 695.922 99.1045C696.594 99.3024 697.169 99.654 697.648 100.159C698.128 100.664 698.492 101.284 698.742 102.019C698.992 102.748 699.117 103.649 699.117 104.722C699.117 105.664 699 106.477 698.766 107.159C698.479 107.993 698.07 108.667 697.539 109.183C697.138 109.573 696.596 109.878 695.914 110.097C695.404 110.258 694.721 110.339 693.867 110.339H689.516V98.8857ZM691.828 100.823V108.409H693.555C694.201 108.409 694.667 108.373 694.953 108.3C695.328 108.206 695.638 108.047 695.883 107.823C696.133 107.599 696.336 107.232 696.492 106.722C696.648 106.206 696.727 105.506 696.727 104.62C696.727 103.735 696.648 103.055 696.492 102.581C696.336 102.107 696.117 101.737 695.836 101.472C695.555 101.206 695.198 101.026 694.766 100.933C694.443 100.86 693.81 100.823 692.867 100.823H691.828Z" fill="white"/>
<path d="M636.164 110.339H631.164V115.339H636.164V110.339ZM636.164 98.8857V93.8857H631.164V98.8857H636.164ZM644.656 98.8857H649.656V93.8857H644.656V98.8857ZM644.656 100.823V105.823H649.656V100.823H644.656ZM638.477 100.823V95.8232H633.477V100.823H638.477ZM638.477 103.362H633.477V108.362H638.477V103.362ZM644.227 103.362H649.227V98.3623H644.227V103.362ZM644.227 105.292V110.292H649.227V105.292H644.227ZM638.477 105.292V100.292H633.477V105.292H638.477ZM638.477 108.409H633.477V113.409H638.477V108.409ZM644.875 108.409H649.875V103.409H644.875V108.409ZM644.875 110.339V115.339H649.875V110.339H644.875ZM641.164 110.339V98.8857H631.164V110.339H641.164ZM636.164 103.886H644.656V93.8857H636.164V103.886ZM639.656 98.8857V100.823H649.656V98.8857H639.656ZM644.656 95.8232H638.477V105.823H644.656V95.8232ZM633.477 100.823V103.362H643.477V100.823H633.477ZM638.477 108.362H644.227V98.3623H638.477V108.362ZM639.227 103.362V105.292H649.227V103.362H639.227ZM644.227 100.292H638.477V110.292H644.227V100.292ZM633.477 105.292V108.409H643.477V105.292H633.477ZM638.477 113.409H644.875V103.409H638.477V113.409ZM639.875 108.409V110.339H649.875V108.409H639.875ZM644.875 105.339H636.164V115.339H644.875V105.339ZM645.672 110.339L641.489 107.6L636.421 115.339H645.672V110.339ZM649.586 104.362L653.769 107.102L655.553 104.378L653.783 101.644L649.586 104.362ZM646.039 98.8857V93.8857H636.844L641.842 101.604L646.039 98.8857ZM648.742 98.8857L652.984 96.2382L651.515 93.8857H648.742V98.8857ZM651.039 102.565L646.798 105.213L651.083 112.078L655.305 105.174L651.039 102.565ZM653.289 98.8857V93.8857H650.486L649.023 96.2774L653.289 98.8857ZM655.969 98.8857L660.179 101.582L665.109 93.8857H655.969V98.8857ZM652.406 104.448L648.196 101.752L646.437 104.499L648.242 107.215L652.406 104.448ZM656.32 110.339V115.339H665.646L660.485 107.572L656.32 110.339ZM653.531 110.339L649.322 113.037L650.797 115.339H653.531V110.339ZM650.992 106.378L655.202 103.68L650.999 97.123L646.787 103.674L650.992 106.378ZM648.445 110.339V115.339H651.175L652.651 113.043L648.445 110.339ZM649.855 113.078L653.769 107.102L645.403 101.623L641.489 107.6L649.855 113.078ZM653.783 101.644L650.236 96.1677L641.842 101.604L645.389 107.08L653.783 101.644ZM646.039 103.886H648.742V93.8857H646.039V103.886ZM644.501 101.533L646.798 105.213L655.281 99.9179L652.984 96.2382L644.501 101.533ZM655.305 105.174L657.555 101.494L649.023 96.2774L646.773 99.9571L655.305 105.174ZM653.289 103.886H655.969V93.8857H653.289V103.886ZM651.758 96.1891L648.196 101.752L656.617 107.145L660.179 101.582L651.758 96.1891ZM648.242 107.215L652.156 113.106L660.485 107.572L656.571 101.681L648.242 107.215ZM656.32 105.339H653.531V115.339H656.32V105.339ZM657.741 107.641L655.202 103.68L646.783 109.076L649.322 113.037L657.741 107.641ZM646.787 103.674L644.24 107.635L652.651 113.043L655.198 109.082L646.787 103.674ZM648.445 105.339H645.672V115.339H648.445V105.339ZM660.086 110.339H655.086V115.339H660.086V110.339ZM660.086 100.823H665.086V95.8232H660.086V100.823ZM656.688 100.823H651.688V105.823H656.688V100.823ZM656.688 98.8857V93.8857H651.688V98.8857H656.688ZM665.789 98.8857H670.789V93.8857H665.789V98.8857ZM665.789 100.823V105.823H670.789V100.823H665.789ZM662.398 100.823V95.8232H657.398V100.823H662.398ZM662.398 110.339V115.339H667.398V110.339H662.398ZM665.086 110.339V100.823H655.086V110.339H665.086ZM660.086 95.8232H656.688V105.823H660.086V95.8232ZM661.688 100.823V98.8857H651.688V100.823H661.688ZM656.688 103.886H665.789V93.8857H656.688V103.886ZM660.789 98.8857V100.823H670.789V98.8857H660.789ZM665.789 95.8232H662.398V105.823H665.789V95.8232ZM657.398 100.823V110.339H667.398V100.823H657.398ZM662.398 105.339H660.086V115.339H662.398V105.339ZM667.289 110.339H662.289V115.339H667.289V110.339ZM667.289 98.8857V93.8857H662.289V98.8857H667.289ZM675.781 98.8857H680.781V93.8857H675.781V98.8857ZM675.781 100.823V105.823H680.781V100.823H675.781ZM669.602 100.823V95.8232H664.602V100.823H669.602ZM669.602 103.362H664.602V108.362H669.602V103.362ZM675.352 103.362H680.352V98.3623H675.352V103.362ZM675.352 105.292V110.292H680.352V105.292H675.352ZM669.602 105.292V100.292H664.602V105.292H669.602ZM669.602 108.409H664.602V113.409H669.602V108.409ZM676 108.409H681V103.409H676V108.409ZM676 110.339V115.339H681V110.339H676ZM672.289 110.339V98.8857H662.289V110.339H672.289ZM667.289 103.886H675.781V93.8857H667.289V103.886ZM670.781 98.8857V100.823H680.781V98.8857H670.781ZM675.781 95.8232H669.602V105.823H675.781V95.8232ZM664.602 100.823V103.362H674.602V100.823H664.602ZM669.602 108.362H675.352V98.3623H669.602V108.362ZM670.352 103.362V105.292H680.352V103.362H670.352ZM675.352 100.292H669.602V110.292H675.352V100.292ZM664.602 105.292V108.409H674.602V105.292H664.602ZM669.602 113.409H676V103.409H669.602V113.409ZM671 108.409V110.339H681V108.409H671ZM676 105.339H667.289V115.339H676V105.339ZM677.984 110.339H672.984V115.339H677.984V110.339ZM677.984 98.8857V93.8857H672.984V98.8857H677.984ZM680.234 98.8857L684.497 96.273L683.034 93.8857H680.234V98.8857ZM684.922 106.534L680.659 109.147L689.922 124.261V106.534H684.922ZM684.922 98.8857V93.8857H679.922V98.8857H684.922ZM687.07 98.8857H692.07V93.8857H687.07V98.8857ZM687.07 110.339V115.339H692.07V110.339H687.07ZM684.75 110.339L680.497 112.968L681.963 115.339H684.75V110.339ZM680.133 102.87L684.386 100.241L675.133 85.2734V102.87H680.133ZM680.133 110.339V115.339H685.133V110.339H680.133ZM682.984 110.339V98.8857H672.984V110.339H682.984ZM677.984 103.886H680.234V93.8857H677.984V103.886ZM675.971 101.498L680.659 109.147L689.185 103.921L684.497 96.273L675.971 101.498ZM689.922 106.534V98.8857H679.922V106.534H689.922ZM684.922 103.886H687.07V93.8857H684.922V103.886ZM682.07 98.8857V110.339H692.07V98.8857H682.07ZM687.07 105.339H684.75V115.339H687.07V105.339ZM689.003 107.71L684.386 100.241L675.88 105.499L680.497 112.968L689.003 107.71ZM675.133 102.87V110.339H685.133V102.87H675.133ZM680.133 105.339H677.984V115.339H680.133V105.339ZM689.516 98.8857V93.8857H684.516V98.8857H689.516ZM695.922 99.1045L697.335 94.3082L697.322 94.3045L695.922 99.1045ZM698.742 102.019L694.009 103.63L694.012 103.64L698.742 102.019ZM698.766 107.159L703.494 108.785L703.494 108.784L698.766 107.159ZM697.539 109.183L694.057 105.595L694.05 105.601L697.539 109.183ZM695.914 110.097L697.422 114.864L697.431 114.861L697.441 114.858L695.914 110.097ZM689.516 110.339H684.516V115.339H689.516V110.339ZM691.828 100.823V95.8232H686.828V100.823H691.828ZM691.828 108.409H686.828V113.409H691.828V108.409ZM694.953 108.3L693.74 103.449L693.73 103.452L693.72 103.454L694.953 108.3ZM695.883 107.823L692.547 104.099L692.527 104.117L692.508 104.134L695.883 107.823ZM696.492 106.722L701.273 108.185L701.275 108.178L701.277 108.172L696.492 106.722ZM696.492 102.581L691.744 104.147L696.492 102.581ZM694.766 100.933L693.664 105.81L693.685 105.815L693.706 105.819L694.766 100.933ZM689.516 103.886H693.742V93.8857H689.516V103.886ZM693.742 103.886C694.099 103.886 694.346 103.9 694.503 103.915C694.672 103.932 694.657 103.944 694.522 103.904L697.322 94.3045C696.136 93.9586 694.846 93.8857 693.742 93.8857V103.886ZM694.509 103.901C694.442 103.881 694.35 103.844 694.251 103.783C694.151 103.723 694.074 103.656 694.021 103.6L701.276 96.7184C700.187 95.5702 698.846 94.7535 697.335 94.3083L694.509 103.901ZM694.021 103.6C694.007 103.585 693.995 103.571 693.986 103.56C693.977 103.548 693.973 103.54 693.972 103.538C693.969 103.533 693.985 103.559 694.009 103.63L703.475 100.407C703.02 99.0688 702.305 97.8035 701.276 96.7184L694.021 103.6ZM694.012 103.64C694.029 103.687 694.117 104.001 694.117 104.722H704.117C704.117 103.297 703.956 101.808 703.472 100.397L694.012 103.64ZM694.117 104.722C694.117 105.272 694.046 105.508 694.037 105.535L703.494 108.784C703.954 107.446 704.117 106.057 704.117 104.722H694.117ZM694.037 105.534C693.997 105.652 693.968 105.699 693.968 105.698C693.969 105.698 693.976 105.686 693.991 105.667C694.006 105.647 694.028 105.622 694.057 105.595L701.021 112.771C702.214 111.613 703 110.22 703.494 108.785L694.037 105.534ZM694.05 105.601C694.336 105.322 694.533 105.289 694.388 105.335L697.441 114.858C698.66 114.467 699.94 113.824 701.028 112.764L694.05 105.601ZM694.406 105.33C694.521 105.293 694.544 105.3 694.432 105.313C694.326 105.326 694.143 105.339 693.867 105.339V115.339C694.967 115.339 696.222 115.243 697.422 114.864L694.406 105.33ZM693.867 105.339H689.516V115.339H693.867V105.339ZM694.516 110.339V98.8857H684.516V110.339H694.516ZM686.828 100.823V108.409H696.828V100.823H686.828ZM691.828 113.409H693.555V103.409H691.828V113.409ZM693.555 113.409C694.246 113.409 695.25 113.384 696.187 113.145L693.72 103.454C693.792 103.436 693.85 103.424 693.892 103.416C693.934 103.407 693.966 103.402 693.986 103.4C694.022 103.394 694.029 103.395 693.999 103.397C693.97 103.399 693.919 103.402 693.842 103.405C693.765 103.408 693.67 103.409 693.555 103.409V113.409ZM696.166 113.151C697.213 112.889 698.306 112.383 699.258 111.512L692.508 104.134C692.97 103.711 693.443 103.523 693.74 103.449L696.166 113.151ZM699.219 111.547C700.437 110.456 700.993 109.1 701.273 108.185L691.711 105.258C691.711 105.258 691.72 105.231 691.739 105.183C691.759 105.135 691.793 105.058 691.847 104.96C691.952 104.771 692.165 104.441 692.547 104.099L699.219 111.547ZM701.277 108.172C701.638 106.982 701.727 105.724 701.727 104.62H691.727C691.727 104.922 691.713 105.129 691.699 105.255C691.684 105.389 691.674 105.38 691.707 105.272L701.277 108.172ZM701.727 104.62C701.727 103.547 701.645 102.242 701.241 101.016L691.744 104.147C691.711 104.049 691.698 103.986 691.695 103.971C691.691 103.954 691.695 103.968 691.701 104.017C691.713 104.122 691.727 104.316 691.727 104.62H701.727ZM701.241 101.016C700.898 99.9756 700.304 98.8138 699.269 97.8366L692.403 105.107C691.931 104.661 691.774 104.239 691.744 104.147L701.241 101.016ZM699.269 97.8366C698.235 96.8599 697.018 96.3048 695.825 96.0462L693.706 105.819C693.378 105.748 692.875 105.552 692.403 105.107L699.269 97.8366ZM695.867 96.0554C694.917 95.8408 693.736 95.8232 692.867 95.8232V105.823C693.284 105.823 693.574 105.832 693.761 105.842C693.805 105.845 693.839 105.847 693.863 105.849C693.887 105.851 693.898 105.852 693.897 105.852C693.897 105.852 693.878 105.85 693.843 105.845C693.81 105.839 693.748 105.829 693.664 105.81L695.867 96.0554ZM692.867 95.8232H691.828V105.823H692.867V95.8232Z" fill="#111111"/>
<path d="M636.164 110.339V98.8857H644.656V100.823H638.477V103.362H644.227V105.292H638.477V108.409H644.875V110.339H636.164ZM645.672 110.339L649.586 104.362L646.039 98.8857H648.742L651.039 102.565L653.289 98.8857H655.969L652.406 104.448L656.32 110.339H653.531L650.992 106.378L648.445 110.339H645.672ZM660.086 110.339V100.823H656.688V98.8857H665.789V100.823H662.398V110.339H660.086ZM667.289 110.339V98.8857H675.781V100.823H669.602V103.362H675.352V105.292H669.602V108.409H676V110.339H667.289ZM677.984 110.339V98.8857H680.234L684.922 106.534V98.8857H687.07V110.339H684.75L680.133 102.87V110.339H677.984ZM689.516 98.8857H693.742C694.695 98.8857 695.422 98.9587 695.922 99.1045C696.594 99.3024 697.169 99.654 697.648 100.159C698.128 100.664 698.492 101.284 698.742 102.019C698.992 102.748 699.117 103.649 699.117 104.722C699.117 105.664 699 106.477 698.766 107.159C698.479 107.993 698.07 108.667 697.539 109.183C697.138 109.573 696.596 109.878 695.914 110.097C695.404 110.258 694.721 110.339 693.867 110.339H689.516V98.8857ZM691.828 100.823V108.409H693.555C694.201 108.409 694.667 108.373 694.953 108.3C695.328 108.206 695.638 108.047 695.883 107.823C696.133 107.599 696.336 107.232 696.492 106.722C696.648 106.206 696.727 105.506 696.727 104.62C696.727 103.735 696.648 103.055 696.492 102.581C696.336 102.107 696.117 101.737 695.836 101.472C695.555 101.206 695.198 101.026 694.766 100.933C694.443 100.86 693.81 100.823 692.867 100.823H691.828Z" fill="white"/>
</svg>
